<?xml version="1.0" encoding="UTF-8" standalone="no"?>
<!DOCTYPE svg PUBLIC "-//W3C//DTD SVG 1.1//EN"
 "http://www.w3.org/Graphics/SVG/1.1/DTD/svg11.dtd">
<!-- Generated by graphviz version 2.40.1 (20161225.0304)
 -->
<!-- Title: dependencies Pages: 1 -->
<svg width="504pt" height="211pt"
 viewBox="0.00 0.00 504.00 211.00" xmlns="http://www.w3.org/2000/svg" xmlns:xlink="http://www.w3.org/1999/xlink">
<g id="graph0" class="graph" transform="scale(1 1) rotate(0) translate(4 207)">
<title>dependencies</title>
<polygon fill="#ffffff" stroke="transparent" points="-4,4 -4,-207 500,-207 500,4 -4,4"/>
<text text-anchor="start" x="227.0091" y="-42.4" font-family="sans-serif" font-weight="bold" font-size="14.00" fill="#000000">Legend</text>
<polygon fill="#ffffb3" stroke="transparent" points="14,-10 14,-30 34,-30 34,-10 14,-10"/>
<text text-anchor="start" x="37.629" y="-15.4" font-family="sans-serif" font-size="14.00" fill="#000000"> &#160;Declarations</text>
<polygon fill="#8dd3c7" stroke="transparent" points="127,-10 127,-30 147,-30 147,-10 127,-10"/>
<text text-anchor="start" x="150.7251" y="-15.4" font-family="sans-serif" font-size="14.00" fill="#000000"> &#160;Module</text>
<polygon fill="#80b1d3" stroke="transparent" points="213,-10 213,-30 233,-30 233,-10 213,-10"/>
<text text-anchor="start" x="236.7812" y="-15.4" font-family="sans-serif" font-size="14.00" fill="#000000"> &#160;Bootstrap</text>
<polygon fill="#fdb462" stroke="transparent" points="310,-10 310,-30 330,-30 330,-10 310,-10"/>
<text text-anchor="start" x="333.6732" y="-15.4" font-family="sans-serif" font-size="14.00" fill="#000000"> &#160;Providers</text>
<polygon fill="#fb8072" stroke="transparent" points="406,-10 406,-30 426,-30 426,-10 406,-10"/>
<text text-anchor="start" x="429.7258" y="-15.4" font-family="sans-serif" font-size="14.00" fill="#000000"> &#160;Exports</text>
<g id="clust1" class="cluster">
<title>cluster_MealsPageModule</title>
<polygon fill="none" stroke="#000000" stroke-dasharray="1,5" points="54,-70 54,-195 442,-195 442,-70 54,-70"/>
</g>
<g id="clust2" class="cluster">
<title>cluster_MealsPageModule_declarations</title>
<polygon fill="none" stroke="#000000" points="62,-78 62,-130 434,-130 434,-78 62,-78"/>
</g>
<!-- MapComponent -->
<g id="node1" class="node">
<title>MapComponent</title>
<polygon fill="#ffffb3" stroke="#000000" points="426.4916,-122 319.5084,-122 319.5084,-86 426.4916,-86 426.4916,-122"/>
<text text-anchor="middle" x="373" y="-99.8" font-family="Times,serif" font-size="14.00" fill="#000000">MapComponent</text>
</g>
<!-- MealsPageModule -->
<g id="node4" class="node">
<title>MealsPageModule</title>
<polygon fill="#8dd3c7" stroke="#000000" points="294.4706,-187 291.4706,-191 270.4706,-191 267.4706,-187 173.5294,-187 173.5294,-151 294.4706,-151 294.4706,-187"/>
<text text-anchor="middle" x="234" y="-164.8" font-family="Times,serif" font-size="14.00" fill="#000000">MealsPageModule</text>
</g>
<!-- MapComponent&#45;&gt;MealsPageModule -->
<g id="edge1" class="edge">
<title>MapComponent&#45;&gt;MealsPageModule</title>
<path fill="none" stroke="#000000" d="M373,-122.1061C373,-141.3391 373,-169 373,-169 373,-169 304.5631,-169 304.5631,-169"/>
<polygon fill="#000000" stroke="#000000" points="304.5631,-165.5001 294.5631,-169 304.563,-172.5001 304.5631,-165.5001"/>
</g>
<!-- MealItemComponent -->
<g id="node2" class="node">
<title>MealItemComponent</title>
<polygon fill="#ffffb3" stroke="#000000" points="301.7534,-122 166.2466,-122 166.2466,-86 301.7534,-86 301.7534,-122"/>
<text text-anchor="middle" x="234" y="-99.8" font-family="Times,serif" font-size="14.00" fill="#000000">MealItemComponent</text>
</g>
<!-- MealItemComponent&#45;&gt;MealsPageModule -->
<g id="edge2" class="edge">
<title>MealItemComponent&#45;&gt;MealsPageModule</title>
<path fill="none" stroke="#000000" d="M234,-122.1061C234,-122.1061 234,-140.991 234,-140.991"/>
<polygon fill="#000000" stroke="#000000" points="230.5001,-140.9909 234,-150.991 237.5001,-140.991 230.5001,-140.9909"/>
</g>
<!-- MealsPage -->
<g id="node3" class="node">
<title>MealsPage</title>
<polygon fill="#ffffb3" stroke="#000000" points="147.9219,-122 70.0781,-122 70.0781,-86 147.9219,-86 147.9219,-122"/>
<text text-anchor="middle" x="109" y="-99.8" font-family="Times,serif" font-size="14.00" fill="#000000">MealsPage</text>
</g>
<!-- MealsPage&#45;&gt;MealsPageModule -->
<g id="edge3" class="edge">
<title>MealsPage&#45;&gt;MealsPageModule</title>
<path fill="none" stroke="#000000" d="M109,-122.1061C109,-141.3391 109,-169 109,-169 109,-169 163.3308,-169 163.3308,-169"/>
<polygon fill="#000000" stroke="#000000" points="163.3309,-172.5001 173.3308,-169 163.3308,-165.5001 163.3309,-172.5001"/>
</g>
</g>
</svg>
