<?xml version="1.0" encoding="UTF-8" standalone="no"?>
<!DOCTYPE svg PUBLIC "-//W3C//DTD SVG 1.1//EN"
 "http://www.w3.org/Graphics/SVG/1.1/DTD/svg11.dtd">
<!-- Generated by graphviz version 2.40.1 (20161225.0304)
 -->
<!-- Title: dependencies Pages: 1 -->
<svg width="704pt" height="211pt"
 viewBox="0.00 0.00 704.00 211.00" xmlns="http://www.w3.org/2000/svg" xmlns:xlink="http://www.w3.org/1999/xlink">
<g id="graph0" class="graph" transform="scale(1 1) rotate(0) translate(4 207)">
<title>dependencies</title>
<polygon fill="#ffffff" stroke="transparent" points="-4,4 -4,-207 700,-207 700,4 -4,4"/>
<text text-anchor="start" x="327.0091" y="-42.4" font-family="sans-serif" font-weight="bold" font-size="14.00" fill="#000000">Legend</text>
<polygon fill="#ffffb3" stroke="transparent" points="114,-10 114,-30 134,-30 134,-10 114,-10"/>
<text text-anchor="start" x="137.629" y="-15.4" font-family="sans-serif" font-size="14.00" fill="#000000"> &#160;Declarations</text>
<polygon fill="#8dd3c7" stroke="transparent" points="227,-10 227,-30 247,-30 247,-10 227,-10"/>
<text text-anchor="start" x="250.7251" y="-15.4" font-family="sans-serif" font-size="14.00" fill="#000000"> &#160;Module</text>
<polygon fill="#80b1d3" stroke="transparent" points="313,-10 313,-30 333,-30 333,-10 313,-10"/>
<text text-anchor="start" x="336.7812" y="-15.4" font-family="sans-serif" font-size="14.00" fill="#000000"> &#160;Bootstrap</text>
<polygon fill="#fdb462" stroke="transparent" points="410,-10 410,-30 430,-30 430,-10 410,-10"/>
<text text-anchor="start" x="433.6732" y="-15.4" font-family="sans-serif" font-size="14.00" fill="#000000"> &#160;Providers</text>
<polygon fill="#fb8072" stroke="transparent" points="506,-10 506,-30 526,-30 526,-10 506,-10"/>
<text text-anchor="start" x="529.7258" y="-15.4" font-family="sans-serif" font-size="14.00" fill="#000000"> &#160;Exports</text>
<g id="clust1" class="cluster">
<title>cluster_MealsPageModule</title>
<polygon fill="none" stroke="#000000" stroke-dasharray="1,5" points="8,-70 8,-195 688,-195 688,-70 8,-70"/>
</g>
<g id="clust2" class="cluster">
<title>cluster_MealsPageModule_declarations</title>
<polygon fill="none" stroke="#000000" points="16,-78 16,-130 680,-130 680,-78 16,-78"/>
</g>
<!-- ChefTitleComponent -->
<g id="node1" class="node">
<title>ChefTitleComponent</title>
<polygon fill="#ffffb3" stroke="#000000" points="672.4832,-122 537.5168,-122 537.5168,-86 672.4832,-86 672.4832,-122"/>
<text text-anchor="middle" x="605" y="-99.8" font-family="Times,serif" font-size="14.00" fill="#000000">ChefTitleComponent</text>
</g>
<!-- MealsPageModule -->
<g id="node6" class="node">
<title>MealsPageModule</title>
<polygon fill="#8dd3c7" stroke="#000000" points="387.4706,-187 384.4706,-191 363.4706,-191 360.4706,-187 266.5294,-187 266.5294,-151 387.4706,-151 387.4706,-187"/>
<text text-anchor="middle" x="327" y="-164.8" font-family="Times,serif" font-size="14.00" fill="#000000">MealsPageModule</text>
</g>
<!-- ChefTitleComponent&#45;&gt;MealsPageModule -->
<g id="edge1" class="edge">
<title>ChefTitleComponent&#45;&gt;MealsPageModule</title>
<path fill="none" stroke="#000000" d="M605,-122.2843C605,-143.3211 605,-175 605,-175 605,-175 397.6648,-175 397.6648,-175"/>
<polygon fill="#000000" stroke="#000000" points="397.6648,-171.5001 387.6648,-175 397.6647,-178.5001 397.6648,-171.5001"/>
</g>
<!-- FollowComponent -->
<g id="node2" class="node">
<title>FollowComponent</title>
<polygon fill="#ffffb3" stroke="#000000" points="519.5028,-122 398.4972,-122 398.4972,-86 519.5028,-86 519.5028,-122"/>
<text text-anchor="middle" x="459" y="-99.8" font-family="Times,serif" font-size="14.00" fill="#000000">FollowComponent</text>
</g>
<!-- FollowComponent&#45;&gt;MealsPageModule -->
<g id="edge2" class="edge">
<title>FollowComponent&#45;&gt;MealsPageModule</title>
<path fill="none" stroke="#000000" d="M459,-122.0225C459,-139.3734 459,-163 459,-163 459,-163 397.5913,-163 397.5913,-163"/>
<polygon fill="#000000" stroke="#000000" points="397.5914,-159.5001 387.5913,-163 397.5913,-166.5001 397.5914,-159.5001"/>
</g>
<!-- MapComponent -->
<g id="node3" class="node">
<title>MapComponent</title>
<polygon fill="#ffffb3" stroke="#000000" points="380.4916,-122 273.5084,-122 273.5084,-86 380.4916,-86 380.4916,-122"/>
<text text-anchor="middle" x="327" y="-99.8" font-family="Times,serif" font-size="14.00" fill="#000000">MapComponent</text>
</g>
<!-- MapComponent&#45;&gt;MealsPageModule -->
<g id="edge3" class="edge">
<title>MapComponent&#45;&gt;MealsPageModule</title>
<path fill="none" stroke="#000000" d="M327,-122.1061C327,-122.1061 327,-140.991 327,-140.991"/>
<polygon fill="#000000" stroke="#000000" points="323.5001,-140.9909 327,-150.991 330.5001,-140.991 323.5001,-140.9909"/>
</g>
<!-- MealItemComponent -->
<g id="node4" class="node">
<title>MealItemComponent</title>
<polygon fill="#ffffb3" stroke="#000000" points="255.7534,-122 120.2466,-122 120.2466,-86 255.7534,-86 255.7534,-122"/>
<text text-anchor="middle" x="188" y="-99.8" font-family="Times,serif" font-size="14.00" fill="#000000">MealItemComponent</text>
</g>
<!-- MealItemComponent&#45;&gt;MealsPageModule -->
<g id="edge4" class="edge">
<title>MealItemComponent&#45;&gt;MealsPageModule</title>
<path fill="none" stroke="#000000" d="M188,-122.0225C188,-139.3734 188,-163 188,-163 188,-163 256.4369,-163 256.4369,-163"/>
<polygon fill="#000000" stroke="#000000" points="256.437,-166.5001 266.4369,-163 256.4369,-159.5001 256.437,-166.5001"/>
</g>
<!-- MealsPage -->
<g id="node5" class="node">
<title>MealsPage</title>
<polygon fill="#ffffb3" stroke="#000000" points="101.9219,-122 24.0781,-122 24.0781,-86 101.9219,-86 101.9219,-122"/>
<text text-anchor="middle" x="63" y="-99.8" font-family="Times,serif" font-size="14.00" fill="#000000">MealsPage</text>
</g>
<!-- MealsPage&#45;&gt;MealsPageModule -->
<g id="edge5" class="edge">
<title>MealsPage&#45;&gt;MealsPageModule</title>
<path fill="none" stroke="#000000" d="M63,-122.2843C63,-143.3211 63,-175 63,-175 63,-175 256.4331,-175 256.4331,-175"/>
<polygon fill="#000000" stroke="#000000" points="256.4331,-178.5001 266.4331,-175 256.433,-171.5001 256.4331,-178.5001"/>
</g>
</g>
</svg>
