<?xml version="1.0" encoding="UTF-8" standalone="no"?>
<!DOCTYPE svg PUBLIC "-//W3C//DTD SVG 1.1//EN"
 "http://www.w3.org/Graphics/SVG/1.1/DTD/svg11.dtd">
<!-- Generated by graphviz version 2.40.1 (20161225.0304)
 -->
<!-- Title: dependencies Pages: 1 -->
<svg width="3906pt" height="284pt"
 viewBox="0.00 0.00 3906.00 284.00" xmlns="http://www.w3.org/2000/svg" xmlns:xlink="http://www.w3.org/1999/xlink">
<g id="graph0" class="graph" transform="scale(1 1) rotate(0) translate(4 280)">
<title>dependencies</title>
<polygon fill="#ffffff" stroke="transparent" points="-4,4 -4,-280 3902,-280 3902,4 -4,4"/>
<text text-anchor="start" x="1928.0091" y="-42.4" font-family="sans-serif" font-weight="bold" font-size="14.00" fill="#000000">Legend</text>
<polygon fill="#ffffb3" stroke="transparent" points="1715,-10 1715,-30 1735,-30 1735,-10 1715,-10"/>
<text text-anchor="start" x="1738.629" y="-15.4" font-family="sans-serif" font-size="14.00" fill="#000000"> &#160;Declarations</text>
<polygon fill="#8dd3c7" stroke="transparent" points="1828,-10 1828,-30 1848,-30 1848,-10 1828,-10"/>
<text text-anchor="start" x="1851.7251" y="-15.4" font-family="sans-serif" font-size="14.00" fill="#000000"> &#160;Module</text>
<polygon fill="#80b1d3" stroke="transparent" points="1914,-10 1914,-30 1934,-30 1934,-10 1914,-10"/>
<text text-anchor="start" x="1937.7812" y="-15.4" font-family="sans-serif" font-size="14.00" fill="#000000"> &#160;Bootstrap</text>
<polygon fill="#fdb462" stroke="transparent" points="2011,-10 2011,-30 2031,-30 2031,-10 2011,-10"/>
<text text-anchor="start" x="2034.6732" y="-15.4" font-family="sans-serif" font-size="14.00" fill="#000000"> &#160;Providers</text>
<polygon fill="#fb8072" stroke="transparent" points="2107,-10 2107,-30 2127,-30 2127,-10 2107,-10"/>
<text text-anchor="start" x="2130.7258" y="-15.4" font-family="sans-serif" font-size="14.00" fill="#000000"> &#160;Exports</text>
<g id="clust1" class="cluster">
<title>cluster_AddMealPageModule</title>
<polygon fill="none" stroke="#000000" stroke-dasharray="1,5" points="8,-70 8,-195 164,-195 164,-70 8,-70"/>
</g>
<g id="clust2" class="cluster">
<title>cluster_AddMealPageModule_declarations</title>
<polygon fill="none" stroke="#000000" points="37,-78 37,-130 149,-130 149,-78 37,-78"/>
</g>
<g id="clust8" class="cluster">
<title>cluster_AllergiesPageModule</title>
<polygon fill="none" stroke="#000000" stroke-dasharray="1,5" points="2578,-70 2578,-195 2732,-195 2732,-70 2578,-70"/>
</g>
<g id="clust9" class="cluster">
<title>cluster_AllergiesPageModule_declarations</title>
<polygon fill="none" stroke="#000000" points="2593,-78 2593,-130 2703,-130 2703,-78 2593,-78"/>
</g>
<g id="clust15" class="cluster">
<title>cluster_AppModule</title>
<polygon fill="none" stroke="#000000" stroke-dasharray="1,5" points="676,-70 676,-268 2046,-268 2046,-70 676,-70"/>
</g>
<g id="clust16" class="cluster">
<title>cluster_AppModule_declarations</title>
<polygon fill="none" stroke="#000000" points="836,-78 836,-130 2038,-130 2038,-78 836,-78"/>
</g>
<g id="clust29" class="cluster">
<title>cluster_AppModule_imports</title>
<polygon fill="none" stroke="#000000" points="684,-78 684,-130 828,-130 828,-78 684,-78"/>
</g>
<g id="clust31" class="cluster">
<title>cluster_AppModule_bootstrap</title>
<polygon fill="none" stroke="#000000" points="1299,-208 1299,-260 1423,-260 1423,-208 1299,-208"/>
</g>
<g id="clust39" class="cluster">
<title>cluster_EditUserPageModule</title>
<polygon fill="none" stroke="#000000" stroke-dasharray="1,5" points="2244,-143 2244,-195 2396,-195 2396,-143 2244,-143"/>
</g>
<g id="clust46" class="cluster">
<title>cluster_ExperiencePageModule</title>
<polygon fill="none" stroke="#000000" stroke-dasharray="1,5" points="2404,-143 2404,-195 2570,-195 2570,-143 2404,-143"/>
</g>
<g id="clust53" class="cluster">
<title>cluster_FavoriteChefsPageModule</title>
<polygon fill="none" stroke="#000000" stroke-dasharray="1,5" points="2054,-143 2054,-195 2236,-195 2236,-143 2054,-143"/>
</g>
<g id="clust61" class="cluster">
<title>cluster_MealDetailPageModule</title>
<polygon fill="none" stroke="#000000" stroke-dasharray="1,5" points="172,-143 172,-195 338,-195 338,-143 172,-143"/>
</g>
<g id="clust68" class="cluster">
<title>cluster_MealHistoryPageModule</title>
<polygon fill="none" stroke="#000000" stroke-dasharray="1,5" points="346,-143 346,-195 520,-195 520,-143 346,-143"/>
</g>
<g id="clust75" class="cluster">
<title>cluster_MealsPageModule</title>
<polygon fill="none" stroke="#000000" stroke-dasharray="1,5" points="2916,-70 2916,-195 3596,-195 3596,-70 2916,-70"/>
</g>
<g id="clust76" class="cluster">
<title>cluster_MealsPageModule_declarations</title>
<polygon fill="none" stroke="#000000" points="2924,-78 2924,-130 3588,-130 3588,-78 2924,-78"/>
</g>
<g id="clust86" class="cluster">
<title>cluster_OrdersPageModule</title>
<polygon fill="none" stroke="#000000" stroke-dasharray="1,5" points="528,-143 528,-195 668,-195 668,-143 528,-143"/>
</g>
<g id="clust93" class="cluster">
<title>cluster_ProfilePagePageModule</title>
<polygon fill="none" stroke="#000000" stroke-dasharray="1,5" points="2740,-143 2740,-268 2908,-268 2908,-143 2740,-143"/>
</g>
<g id="clust99" class="cluster">
<title>cluster_ProfilePagePageModule_exports</title>
<polygon fill="none" stroke="#000000" points="2767,-208 2767,-260 2881,-260 2881,-208 2767,-208"/>
</g>
<g id="clust102" class="cluster">
<title>cluster_TabsPageModule</title>
<polygon fill="none" stroke="#000000" stroke-dasharray="1,5" points="3604,-70 3604,-195 3890,-195 3890,-70 3604,-70"/>
</g>
<g id="clust103" class="cluster">
<title>cluster_TabsPageModule_declarations</title>
<polygon fill="none" stroke="#000000" points="3796,-78 3796,-130 3882,-130 3882,-78 3796,-78"/>
</g>
<g id="clust105" class="cluster">
<title>cluster_TabsPageModule_imports</title>
<polygon fill="none" stroke="#000000" points="3612,-78 3612,-130 3788,-130 3788,-78 3612,-78"/>
</g>
<!-- AddMealPage -->
<g id="node1" class="node">
<title>AddMealPage</title>
<polygon fill="#ffffb3" stroke="#000000" points="141.0828,-122 44.9172,-122 44.9172,-86 141.0828,-86 141.0828,-122"/>
<text text-anchor="middle" x="93" y="-99.8" font-family="Times,serif" font-size="14.00" fill="#000000">AddMealPage</text>
</g>
<!-- AddMealPageModule -->
<g id="node2" class="node">
<title>AddMealPageModule</title>
<polygon fill="#8dd3c7" stroke="#000000" points="155.6331,-187 152.6331,-191 131.6331,-191 128.6331,-187 16.3669,-187 16.3669,-151 155.6331,-151 155.6331,-187"/>
<text text-anchor="middle" x="86" y="-164.8" font-family="Times,serif" font-size="14.00" fill="#000000">AddMealPageModule</text>
</g>
<!-- AddMealPage&#45;&gt;AddMealPageModule -->
<g id="edge1" class="edge">
<title>AddMealPage&#45;&gt;AddMealPageModule</title>
<path fill="none" stroke="#000000" d="M93,-122.1061C93,-122.1061 93,-140.991 93,-140.991"/>
<polygon fill="#000000" stroke="#000000" points="89.5001,-140.9909 93,-150.991 96.5001,-140.991 89.5001,-140.9909"/>
</g>
<!-- AppModule -->
<g id="node15" class="node">
<title>AppModule</title>
<polygon fill="#8dd3c7" stroke="#000000" points="1402.6571,-187 1399.6571,-191 1378.6571,-191 1375.6571,-187 1319.3429,-187 1319.3429,-151 1402.6571,-151 1402.6571,-187"/>
<text text-anchor="middle" x="1361" y="-164.8" font-family="Times,serif" font-size="14.00" fill="#000000">AppModule</text>
</g>
<!-- AddMealPage&#45;&gt;AppModule -->
<g id="edge3" class="edge">
<title>AddMealPage&#45;&gt;AppModule</title>
<path fill="none" stroke="#000000" d="M141.2069,-104C280.8907,-104 676.0186,-104 676.0186,-104 676.0186,-104 676.0186,-183 676.0186,-183 676.0186,-183 1309.1825,-183 1309.1825,-183"/>
<polygon fill="#000000" stroke="#000000" points="1309.1825,-186.5001 1319.1825,-183 1309.1824,-179.5001 1309.1825,-186.5001"/>
</g>
<!-- AllergiesPage -->
<g id="node3" class="node">
<title>AllergiesPage</title>
<polygon fill="#ffffb3" stroke="#000000" points="2695.0258,-122 2600.9742,-122 2600.9742,-86 2695.0258,-86 2695.0258,-122"/>
<text text-anchor="middle" x="2648" y="-99.8" font-family="Times,serif" font-size="14.00" fill="#000000">AllergiesPage</text>
</g>
<!-- AllergiesPageModule -->
<g id="node4" class="node">
<title>AllergiesPageModule</title>
<polygon fill="#8dd3c7" stroke="#000000" points="2724.0744,-187 2721.0744,-191 2700.0744,-191 2697.0744,-187 2585.9256,-187 2585.9256,-151 2724.0744,-151 2724.0744,-187"/>
<text text-anchor="middle" x="2655" y="-164.8" font-family="Times,serif" font-size="14.00" fill="#000000">AllergiesPageModule</text>
</g>
<!-- AllergiesPage&#45;&gt;AllergiesPageModule -->
<g id="edge2" class="edge">
<title>AllergiesPage&#45;&gt;AllergiesPageModule</title>
<path fill="none" stroke="#000000" d="M2648,-122.1061C2648,-122.1061 2648,-140.991 2648,-140.991"/>
<polygon fill="#000000" stroke="#000000" points="2644.5001,-140.9909 2648,-150.991 2651.5001,-140.991 2644.5001,-140.9909"/>
</g>
<!-- AllergiesPage&#45;&gt;AppModule -->
<g id="edge4" class="edge">
<title>AllergiesPage&#45;&gt;AppModule</title>
<path fill="none" stroke="#000000" d="M2600.7472,-104C2458.7865,-104 2045.81,-104 2045.81,-104 2045.81,-104 2045.81,-183 2045.81,-183 2045.81,-183 1412.8071,-183 1412.8071,-183"/>
<polygon fill="#000000" stroke="#000000" points="1412.8071,-179.5001 1402.8071,-183 1412.807,-186.5001 1412.8071,-179.5001"/>
</g>
<!-- AppComponent -->
<g id="node5" class="node">
<title>AppComponent</title>
<polygon fill="#ffffb3" stroke="#000000" points="1304.9399,-122 1199.0601,-122 1199.0601,-86 1304.9399,-86 1304.9399,-122"/>
<text text-anchor="middle" x="1252" y="-99.8" font-family="Times,serif" font-size="14.00" fill="#000000">AppComponent</text>
</g>
<!-- AppComponent&#45;&gt;AppModule -->
<g id="edge5" class="edge">
<title>AppComponent&#45;&gt;AppModule</title>
<path fill="none" stroke="#000000" d="M1252,-122.027C1252,-138.3976 1252,-160 1252,-160 1252,-160 1309.1695,-160 1309.1695,-160"/>
<polygon fill="#000000" stroke="#000000" points="1309.1695,-163.5001 1319.1695,-160 1309.1695,-156.5001 1309.1695,-163.5001"/>
</g>
<!-- ChefCardComponent -->
<g id="node6" class="node">
<title>ChefCardComponent</title>
<polygon fill="#ffffb3" stroke="#000000" points="1553.7562,-122 1418.2438,-122 1418.2438,-86 1553.7562,-86 1553.7562,-122"/>
<text text-anchor="middle" x="1486" y="-99.8" font-family="Times,serif" font-size="14.00" fill="#000000">ChefCardComponent</text>
</g>
<!-- ChefCardComponent&#45;&gt;AppModule -->
<g id="edge6" class="edge">
<title>ChefCardComponent&#45;&gt;AppModule</title>
<path fill="none" stroke="#000000" d="M1463.374,-122.0225C1463.374,-139.3734 1463.374,-163 1463.374,-163 1463.374,-163 1412.9348,-163 1412.9348,-163"/>
<polygon fill="#000000" stroke="#000000" points="1412.9348,-159.5001 1402.9348,-163 1412.9348,-166.5001 1412.9348,-159.5001"/>
</g>
<!-- FavoriteChefsPageModule -->
<g id="node20" class="node">
<title>FavoriteChefsPageModule</title>
<polygon fill="#8dd3c7" stroke="#000000" points="2228.0716,-187 2225.0716,-191 2204.0716,-191 2201.0716,-187 2061.9284,-187 2061.9284,-151 2228.0716,-151 2228.0716,-187"/>
<text text-anchor="middle" x="2145" y="-164.8" font-family="Times,serif" font-size="14.00" fill="#000000">FavoriteChefsPageModule</text>
</g>
<!-- ChefCardComponent&#45;&gt;FavoriteChefsPageModule -->
<g id="edge19" class="edge">
<title>ChefCardComponent&#45;&gt;FavoriteChefsPageModule</title>
<path fill="none" stroke="#000000" d="M1508.626,-122.0091C1508.626,-138.0494 1508.626,-159 1508.626,-159 1508.626,-159 2051.8052,-159 2051.8052,-159"/>
<polygon fill="#000000" stroke="#000000" points="2051.8052,-162.5001 2061.8052,-159 2051.8052,-155.5001 2051.8052,-162.5001"/>
</g>
<!-- EditUserPage -->
<g id="node7" class="node">
<title>EditUserPage</title>
<polygon fill="#ffffb3" stroke="#000000" points="1805.472,-122 1712.528,-122 1712.528,-86 1805.472,-86 1805.472,-122"/>
<text text-anchor="middle" x="1759" y="-99.8" font-family="Times,serif" font-size="14.00" fill="#000000">EditUserPage</text>
</g>
<!-- EditUserPage&#45;&gt;AppModule -->
<g id="edge7" class="edge">
<title>EditUserPage&#45;&gt;AppModule</title>
<path fill="none" stroke="#000000" d="M1774.4953,-122.308C1774.4953,-142.1455 1774.4953,-171 1774.4953,-171 1774.4953,-171 1412.9237,-171 1412.9237,-171"/>
<polygon fill="#000000" stroke="#000000" points="1412.9237,-167.5001 1402.9237,-171 1412.9236,-174.5001 1412.9237,-167.5001"/>
</g>
<!-- EditUserPageModule -->
<g id="node18" class="node">
<title>EditUserPageModule</title>
<polygon fill="#8dd3c7" stroke="#000000" points="2388.0226,-187 2385.0226,-191 2364.0226,-191 2361.0226,-187 2251.9774,-187 2251.9774,-151 2388.0226,-151 2388.0226,-187"/>
<text text-anchor="middle" x="2320" y="-164.8" font-family="Times,serif" font-size="14.00" fill="#000000">EditUserPageModule</text>
</g>
<!-- EditUserPage&#45;&gt;EditUserPageModule -->
<g id="edge17" class="edge">
<title>EditUserPage&#45;&gt;EditUserPageModule</title>
<path fill="none" stroke="#000000" d="M1743.5047,-122.4854C1743.5047,-134.1399 1743.5047,-147 1743.5047,-147 1743.5047,-147 2320,-147 2320,-147 2320,-147 2320,-147.3832 2320,-147.3832"/>
<polygon fill="#000000" stroke="#000000" points="2316.5003,-140.832 2320,-150.8321 2323.5003,-140.8322 2316.5003,-140.832"/>
</g>
<!-- ExperiencePage -->
<g id="node8" class="node">
<title>ExperiencePage</title>
<polygon fill="#ffffb3" stroke="#000000" points="1930.1741,-122 1823.8259,-122 1823.8259,-86 1930.1741,-86 1930.1741,-122"/>
<text text-anchor="middle" x="1877" y="-99.8" font-family="Times,serif" font-size="14.00" fill="#000000">ExperiencePage</text>
</g>
<!-- ExperiencePage&#45;&gt;AppModule -->
<g id="edge8" class="edge">
<title>ExperiencePage&#45;&gt;AppModule</title>
<path fill="none" stroke="#000000" d="M1894.6957,-122.2843C1894.6957,-143.3211 1894.6957,-175 1894.6957,-175 1894.6957,-175 1412.8782,-175 1412.8782,-175"/>
<polygon fill="#000000" stroke="#000000" points="1412.8782,-171.5001 1402.8782,-175 1412.8782,-178.5001 1412.8782,-171.5001"/>
</g>
<!-- ExperiencePageModule -->
<g id="node19" class="node">
<title>ExperiencePageModule</title>
<polygon fill="#8dd3c7" stroke="#000000" points="2561.7241,-187 2558.7241,-191 2537.7241,-191 2534.7241,-187 2412.2759,-187 2412.2759,-151 2561.7241,-151 2561.7241,-187"/>
<text text-anchor="middle" x="2487" y="-164.8" font-family="Times,serif" font-size="14.00" fill="#000000">ExperiencePageModule</text>
</g>
<!-- ExperiencePage&#45;&gt;ExperiencePageModule -->
<g id="edge18" class="edge">
<title>ExperiencePage&#45;&gt;ExperiencePageModule</title>
<path fill="none" stroke="#000000" d="M1859.3043,-122.0449C1859.3043,-129.749 1859.3043,-137 1859.3043,-137 1859.3043,-137 2487,-137 2487,-137 2487,-137 2487,-140.7566 2487,-140.7566"/>
<polygon fill="#000000" stroke="#000000" points="2483.5001,-140.7566 2487,-150.7566 2490.5001,-140.7566 2483.5001,-140.7566"/>
</g>
<!-- FavoriteChefsPage -->
<g id="node9" class="node">
<title>FavoriteChefsPage</title>
<polygon fill="#ffffb3" stroke="#000000" points="1694.0227,-122 1571.9773,-122 1571.9773,-86 1694.0227,-86 1694.0227,-122"/>
<text text-anchor="middle" x="1633" y="-99.8" font-family="Times,serif" font-size="14.00" fill="#000000">FavoriteChefsPage</text>
</g>
<!-- FavoriteChefsPage&#45;&gt;AppModule -->
<g id="edge9" class="edge">
<title>FavoriteChefsPage&#45;&gt;AppModule</title>
<path fill="none" stroke="#000000" d="M1612.5797,-122.2222C1612.5797,-140.8285 1612.5797,-167 1612.5797,-167 1612.5797,-167 1412.8257,-167 1412.8257,-167"/>
<polygon fill="#000000" stroke="#000000" points="1412.8257,-163.5001 1402.8257,-167 1412.8256,-170.5001 1412.8257,-163.5001"/>
</g>
<!-- FavoriteChefsPage&#45;&gt;FavoriteChefsPageModule -->
<g id="edge20" class="edge">
<title>FavoriteChefsPage&#45;&gt;FavoriteChefsPageModule</title>
<path fill="none" stroke="#000000" d="M1653.4203,-122.1243C1653.4203,-136.7832 1653.4203,-155 1653.4203,-155 1653.4203,-155 2051.8883,-155 2051.8883,-155"/>
<polygon fill="#000000" stroke="#000000" points="2051.8883,-158.5001 2061.8883,-155 2051.8883,-151.5001 2051.8883,-158.5001"/>
</g>
<!-- LogInPage -->
<g id="node10" class="node">
<title>LogInPage</title>
<polygon fill="#ffffb3" stroke="#000000" points="1399.9262,-122 1322.0738,-122 1322.0738,-86 1399.9262,-86 1399.9262,-122"/>
<text text-anchor="middle" x="1361" y="-99.8" font-family="Times,serif" font-size="14.00" fill="#000000">LogInPage</text>
</g>
<!-- LogInPage&#45;&gt;AppModule -->
<g id="edge10" class="edge">
<title>LogInPage&#45;&gt;AppModule</title>
<path fill="none" stroke="#000000" d="M1361,-122.1061C1361,-122.1061 1361,-140.991 1361,-140.991"/>
<polygon fill="#000000" stroke="#000000" points="1357.5001,-140.9909 1361,-150.991 1364.5001,-140.991 1357.5001,-140.9909"/>
</g>
<!-- MealDetailPage -->
<g id="node11" class="node">
<title>MealDetailPage</title>
<polygon fill="#ffffb3" stroke="#000000" points="950.184,-122 843.816,-122 843.816,-86 950.184,-86 950.184,-122"/>
<text text-anchor="middle" x="897" y="-99.8" font-family="Times,serif" font-size="14.00" fill="#000000">MealDetailPage</text>
</g>
<!-- MealDetailPage&#45;&gt;AppModule -->
<g id="edge11" class="edge">
<title>MealDetailPage&#45;&gt;AppModule</title>
<path fill="none" stroke="#000000" d="M914.6973,-122.0267C914.6973,-142.7672 914.6973,-174 914.6973,-174 914.6973,-174 1309.0129,-174 1309.0129,-174"/>
<polygon fill="#000000" stroke="#000000" points="1309.013,-177.5001 1319.0129,-174 1309.0129,-170.5001 1309.013,-177.5001"/>
</g>
<!-- MealDetailPageModule -->
<g id="node21" class="node">
<title>MealDetailPageModule</title>
<polygon fill="#8dd3c7" stroke="#000000" points="329.7338,-187 326.7338,-191 305.7338,-191 302.7338,-187 180.2662,-187 180.2662,-151 329.7338,-151 329.7338,-187"/>
<text text-anchor="middle" x="255" y="-164.8" font-family="Times,serif" font-size="14.00" fill="#000000">MealDetailPageModule</text>
</g>
<!-- MealDetailPage&#45;&gt;MealDetailPageModule -->
<g id="edge21" class="edge">
<title>MealDetailPage&#45;&gt;MealDetailPageModule</title>
<path fill="none" stroke="#000000" d="M879.3027,-122.207C879.3027,-127.5549 879.3027,-132 879.3027,-132 879.3027,-132 255,-132 255,-132 255,-132 255,-140.9336 255,-140.9336"/>
<polygon fill="#000000" stroke="#000000" points="251.5001,-140.9335 255,-150.9336 258.5001,-140.9336 251.5001,-140.9335"/>
</g>
<!-- MealHistoryPage -->
<g id="node12" class="node">
<title>MealHistoryPage</title>
<polygon fill="#ffffb3" stroke="#000000" points="1081.9692,-122 968.0308,-122 968.0308,-86 1081.9692,-86 1081.9692,-122"/>
<text text-anchor="middle" x="1025" y="-99.8" font-family="Times,serif" font-size="14.00" fill="#000000">MealHistoryPage</text>
</g>
<!-- MealHistoryPage&#45;&gt;AppModule -->
<g id="edge12" class="edge">
<title>MealHistoryPage&#45;&gt;AppModule</title>
<path fill="none" stroke="#000000" d="M1043.9949,-122.1061C1043.9949,-141.3391 1043.9949,-169 1043.9949,-169 1043.9949,-169 1309.2311,-169 1309.2311,-169"/>
<polygon fill="#000000" stroke="#000000" points="1309.2312,-172.5001 1319.2311,-169 1309.2311,-165.5001 1309.2312,-172.5001"/>
</g>
<!-- MealHistoryPageModule -->
<g id="node22" class="node">
<title>MealHistoryPageModule</title>
<polygon fill="#8dd3c7" stroke="#000000" points="511.5197,-187 508.5197,-191 487.5197,-191 484.5197,-187 354.4803,-187 354.4803,-151 511.5197,-151 511.5197,-187"/>
<text text-anchor="middle" x="433" y="-164.8" font-family="Times,serif" font-size="14.00" fill="#000000">MealHistoryPageModule</text>
</g>
<!-- MealHistoryPage&#45;&gt;MealHistoryPageModule -->
<g id="edge22" class="edge">
<title>MealHistoryPage&#45;&gt;MealHistoryPageModule</title>
<path fill="none" stroke="#000000" d="M1006.0051,-122.1097C1006.0051,-131.897 1006.0051,-142 1006.0051,-142 1006.0051,-142 433,-142 433,-142 433,-142 433,-142.8841 433,-142.8841"/>
<polygon fill="#000000" stroke="#000000" points="429.5001,-140.8408 433,-150.8408 436.5001,-140.8409 429.5001,-140.8408"/>
</g>
<!-- OrdersPage -->
<g id="node13" class="node">
<title>OrdersPage</title>
<polygon fill="#ffffb3" stroke="#000000" points="1181.7994,-122 1100.2006,-122 1100.2006,-86 1181.7994,-86 1181.7994,-122"/>
<text text-anchor="middle" x="1141" y="-99.8" font-family="Times,serif" font-size="14.00" fill="#000000">OrdersPage</text>
</g>
<!-- OrdersPage&#45;&gt;AppModule -->
<g id="edge13" class="edge">
<title>OrdersPage&#45;&gt;AppModule</title>
<path fill="none" stroke="#000000" d="M1154.5498,-122.302C1154.5498,-140.2699 1154.5498,-165 1154.5498,-165 1154.5498,-165 1309.2217,-165 1309.2217,-165"/>
<polygon fill="#000000" stroke="#000000" points="1309.2218,-168.5001 1319.2217,-165 1309.2217,-161.5001 1309.2218,-168.5001"/>
</g>
<!-- OrdersPageModule -->
<g id="node29" class="node">
<title>OrdersPageModule</title>
<polygon fill="#8dd3c7" stroke="#000000" points="660.3487,-187 657.3487,-191 636.3487,-191 633.3487,-187 535.6513,-187 535.6513,-151 660.3487,-151 660.3487,-187"/>
<text text-anchor="middle" x="598" y="-164.8" font-family="Times,serif" font-size="14.00" fill="#000000">OrdersPageModule</text>
</g>
<!-- OrdersPage&#45;&gt;OrdersPageModule -->
<g id="edge28" class="edge">
<title>OrdersPage&#45;&gt;OrdersPageModule</title>
<path fill="none" stroke="#000000" d="M1127.4502,-122.1871C1127.4502,-137.1824 1127.4502,-156 1127.4502,-156 1127.4502,-156 670.5526,-156 670.5526,-156"/>
<polygon fill="#000000" stroke="#000000" points="670.5526,-152.5001 660.5526,-156 670.5525,-159.5001 670.5526,-152.5001"/>
</g>
<!-- ProfilePage -->
<g id="node14" class="node">
<title>ProfilePage</title>
<polygon fill="#ffffb3" stroke="#000000" points="2029.812,-122 1948.188,-122 1948.188,-86 2029.812,-86 2029.812,-122"/>
<text text-anchor="middle" x="1989" y="-99.8" font-family="Times,serif" font-size="14.00" fill="#000000">ProfilePage</text>
</g>
<!-- ProfilePage&#45;&gt;AppModule -->
<g id="edge14" class="edge">
<title>ProfilePage&#45;&gt;AppModule</title>
<path fill="none" stroke="#000000" d="M2002.5519,-122.1554C2002.5519,-144.3519 2002.5519,-179 2002.5519,-179 2002.5519,-179 1413.094,-179 1413.094,-179"/>
<polygon fill="#000000" stroke="#000000" points="1413.094,-175.5001 1403.094,-179 1413.094,-182.5001 1413.094,-175.5001"/>
</g>
<!-- ProfilePagePageModule -->
<g id="node30" class="node">
<title>ProfilePagePageModule</title>
<polygon fill="#8dd3c7" stroke="#000000" points="2900.073,-187 2897.073,-191 2876.073,-191 2873.073,-187 2747.927,-187 2747.927,-151 2900.073,-151 2900.073,-187"/>
<text text-anchor="middle" x="2824" y="-164.8" font-family="Times,serif" font-size="14.00" fill="#000000">ProfilePagePageModule</text>
</g>
<!-- ProfilePage&#45;&gt;ProfilePagePageModule -->
<g id="edge31" class="edge">
<title>ProfilePage&#45;&gt;ProfilePagePageModule</title>
<path fill="none" stroke="#000000" d="M1975.4481,-122.1223C1975.4481,-124.9729 1975.4481,-127 1975.4481,-127 1975.4481,-127 2824,-127 2824,-127 2824,-127 2824,-140.9445 2824,-140.9445"/>
<polygon fill="#000000" stroke="#000000" points="2820.5001,-140.9444 2824,-150.9445 2827.5001,-140.9445 2820.5001,-140.9444"/>
</g>
<!-- AppComponent  -->
<g id="node17" class="node">
<title>AppComponent </title>
<polygon fill="#80b1d3" stroke="#000000" points="1415.439,-252 1306.561,-252 1306.561,-216 1415.439,-216 1415.439,-252"/>
<text text-anchor="middle" x="1361" y="-229.8" font-family="Times,serif" font-size="14.00" fill="#000000">AppComponent </text>
</g>
<!-- AppModule&#45;&gt;AppComponent  -->
<g id="edge16" class="edge">
<title>AppModule&#45;&gt;AppComponent </title>
<path fill="none" stroke="#000000" stroke-dasharray="1,5" d="M1361,-187.1061C1361,-187.1061 1361,-205.991 1361,-205.991"/>
<polygon fill="#000000" stroke="#000000" points="1357.5001,-205.9909 1361,-215.991 1364.5001,-205.991 1357.5001,-205.9909"/>
</g>
<!-- AppRoutingModule -->
<g id="node16" class="node">
<title>AppRoutingModule</title>
<polygon fill="#8dd3c7" stroke="#000000" points="820.2744,-122 817.2744,-126 796.2744,-126 793.2744,-122 691.7256,-122 691.7256,-86 820.2744,-86 820.2744,-122"/>
<text text-anchor="middle" x="756" y="-99.8" font-family="Times,serif" font-size="14.00" fill="#000000">AppRoutingModule</text>
</g>
<!-- AppRoutingModule&#45;&gt;AppModule -->
<g id="edge15" class="edge">
<title>AppRoutingModule&#45;&gt;AppModule</title>
<path fill="none" stroke="#000000" d="M756,-122.2921C756,-144.2057 756,-178 756,-178 756,-178 1308.9379,-178 1308.9379,-178"/>
<polygon fill="#000000" stroke="#000000" points="1308.9379,-181.5001 1318.9379,-178 1308.9379,-174.5001 1308.9379,-181.5001"/>
</g>
<!-- ChefTitleComponent -->
<g id="node23" class="node">
<title>ChefTitleComponent</title>
<polygon fill="#ffffb3" stroke="#000000" points="3206.4832,-122 3071.5168,-122 3071.5168,-86 3206.4832,-86 3206.4832,-122"/>
<text text-anchor="middle" x="3139" y="-99.8" font-family="Times,serif" font-size="14.00" fill="#000000">ChefTitleComponent</text>
</g>
<!-- MealsPageModule -->
<g id="node28" class="node">
<title>MealsPageModule</title>
<polygon fill="#8dd3c7" stroke="#000000" points="3352.4706,-187 3349.4706,-191 3328.4706,-191 3325.4706,-187 3231.5294,-187 3231.5294,-151 3352.4706,-151 3352.4706,-187"/>
<text text-anchor="middle" x="3292" y="-164.8" font-family="Times,serif" font-size="14.00" fill="#000000">MealsPageModule</text>
</g>
<!-- ChefTitleComponent&#45;&gt;MealsPageModule -->
<g id="edge23" class="edge">
<title>ChefTitleComponent&#45;&gt;MealsPageModule</title>
<path fill="none" stroke="#000000" d="M3161.4972,-122.1289C3161.4972,-142.5724 3161.4972,-173 3161.4972,-173 3161.4972,-173 3221.3332,-173 3221.3332,-173"/>
<polygon fill="#000000" stroke="#000000" points="3221.3333,-176.5001 3231.3332,-173 3221.3332,-169.5001 3221.3333,-176.5001"/>
</g>
<!-- ChefTitleComponent&#45;&gt;ProfilePagePageModule -->
<g id="edge29" class="edge">
<title>ChefTitleComponent&#45;&gt;ProfilePagePageModule</title>
<path fill="none" stroke="#000000" d="M3116.5028,-122.2667C3116.5028,-140.5552 3116.5028,-166 3116.5028,-166 3116.5028,-166 2910.0881,-166 2910.0881,-166"/>
<polygon fill="#000000" stroke="#000000" points="2910.0881,-162.5001 2900.0881,-166 2910.0881,-169.5001 2910.0881,-162.5001"/>
</g>
<!-- FollowComponent -->
<g id="node24" class="node">
<title>FollowComponent</title>
<polygon fill="#ffffb3" stroke="#000000" points="3053.5028,-122 2932.4972,-122 2932.4972,-86 3053.5028,-86 3053.5028,-122"/>
<text text-anchor="middle" x="2993" y="-99.8" font-family="Times,serif" font-size="14.00" fill="#000000">FollowComponent</text>
</g>
<!-- FollowComponent&#45;&gt;MealsPageModule -->
<g id="edge24" class="edge">
<title>FollowComponent&#45;&gt;MealsPageModule</title>
<path fill="none" stroke="#000000" d="M3013.1671,-122.0109C3013.1671,-144.4852 3013.1671,-180 3013.1671,-180 3013.1671,-180 3221.4974,-180 3221.4974,-180"/>
<polygon fill="#000000" stroke="#000000" points="3221.4975,-183.5001 3231.4974,-180 3221.4974,-176.5001 3221.4975,-183.5001"/>
</g>
<!-- FollowComponent&#45;&gt;ProfilePagePageModule -->
<g id="edge30" class="edge">
<title>FollowComponent&#45;&gt;ProfilePagePageModule</title>
<path fill="none" stroke="#000000" d="M2972.8329,-122.0091C2972.8329,-138.0494 2972.8329,-159 2972.8329,-159 2972.8329,-159 2910.1604,-159 2910.1604,-159"/>
<polygon fill="#000000" stroke="#000000" points="2910.1605,-155.5001 2900.1604,-159 2910.1604,-162.5001 2910.1605,-155.5001"/>
</g>
<!-- MapComponent -->
<g id="node25" class="node">
<title>MapComponent</title>
<polygon fill="#ffffb3" stroke="#000000" points="3484.4916,-122 3377.5084,-122 3377.5084,-86 3484.4916,-86 3484.4916,-122"/>
<text text-anchor="middle" x="3431" y="-99.8" font-family="Times,serif" font-size="14.00" fill="#000000">MapComponent</text>
</g>
<!-- MapComponent&#45;&gt;MealsPageModule -->
<g id="edge25" class="edge">
<title>MapComponent&#45;&gt;MealsPageModule</title>
<path fill="none" stroke="#000000" d="M3431,-122.0225C3431,-139.3734 3431,-163 3431,-163 3431,-163 3362.5631,-163 3362.5631,-163"/>
<polygon fill="#000000" stroke="#000000" points="3362.5631,-159.5001 3352.5631,-163 3362.563,-166.5001 3362.5631,-159.5001"/>
</g>
<!-- MealItemComponent -->
<g id="node26" class="node">
<title>MealItemComponent</title>
<polygon fill="#ffffb3" stroke="#000000" points="3359.7534,-122 3224.2466,-122 3224.2466,-86 3359.7534,-86 3359.7534,-122"/>
<text text-anchor="middle" x="3292" y="-99.8" font-family="Times,serif" font-size="14.00" fill="#000000">MealItemComponent</text>
</g>
<!-- MealItemComponent&#45;&gt;MealsPageModule -->
<g id="edge26" class="edge">
<title>MealItemComponent&#45;&gt;MealsPageModule</title>
<path fill="none" stroke="#000000" d="M3292,-122.1061C3292,-122.1061 3292,-140.991 3292,-140.991"/>
<polygon fill="#000000" stroke="#000000" points="3288.5001,-140.9909 3292,-150.991 3295.5001,-140.991 3288.5001,-140.9909"/>
</g>
<!-- MealsPage -->
<g id="node27" class="node">
<title>MealsPage</title>
<polygon fill="#ffffb3" stroke="#000000" points="3579.9219,-122 3502.0781,-122 3502.0781,-86 3579.9219,-86 3579.9219,-122"/>
<text text-anchor="middle" x="3541" y="-99.8" font-family="Times,serif" font-size="14.00" fill="#000000">MealsPage</text>
</g>
<!-- MealsPage&#45;&gt;MealsPageModule -->
<g id="edge27" class="edge">
<title>MealsPage&#45;&gt;MealsPageModule</title>
<path fill="none" stroke="#000000" d="M3541,-122.2843C3541,-143.3211 3541,-175 3541,-175 3541,-175 3362.5938,-175 3362.5938,-175"/>
<polygon fill="#000000" stroke="#000000" points="3362.5939,-171.5001 3352.5938,-175 3362.5938,-178.5001 3362.5939,-171.5001"/>
</g>
<!-- ModalService  -->
<g id="node31" class="node">
<title>ModalService </title>
<polygon fill="#fb8072" stroke="#000000" points="2873.0274,-252 2774.9726,-252 2774.9726,-216 2873.0274,-216 2873.0274,-252"/>
<text text-anchor="middle" x="2824" y="-229.8" font-family="Times,serif" font-size="14.00" fill="#000000">ModalService </text>
</g>
<!-- ProfilePagePageModule&#45;&gt;ModalService  -->
<g id="edge32" class="edge">
<title>ProfilePagePageModule&#45;&gt;ModalService </title>
<path fill="none" stroke="#000000" stroke-dasharray="5,2" d="M2824,-187.1061C2824,-187.1061 2824,-205.991 2824,-205.991"/>
<polygon fill="#000000" stroke="#000000" points="2820.5001,-205.9909 2824,-215.991 2827.5001,-205.991 2820.5001,-205.9909"/>
</g>
<!-- TabsPage -->
<g id="node32" class="node">
<title>TabsPage</title>
<polygon fill="#ffffb3" stroke="#000000" points="3874.4249,-122 3803.5751,-122 3803.5751,-86 3874.4249,-86 3874.4249,-122"/>
<text text-anchor="middle" x="3839" y="-99.8" font-family="Times,serif" font-size="14.00" fill="#000000">TabsPage</text>
</g>
<!-- TabsPageModule -->
<g id="node33" class="node">
<title>TabsPageModule</title>
<polygon fill="#8dd3c7" stroke="#000000" points="3818.9734,-187 3815.9734,-191 3794.9734,-191 3791.9734,-187 3705.0266,-187 3705.0266,-151 3818.9734,-151 3818.9734,-187"/>
<text text-anchor="middle" x="3762" y="-164.8" font-family="Times,serif" font-size="14.00" fill="#000000">TabsPageModule</text>
</g>
<!-- TabsPage&#45;&gt;TabsPageModule -->
<g id="edge33" class="edge">
<title>TabsPage&#45;&gt;TabsPageModule</title>
<path fill="none" stroke="#000000" d="M3811.3875,-122.1061C3811.3875,-122.1061 3811.3875,-140.991 3811.3875,-140.991"/>
<polygon fill="#000000" stroke="#000000" points="3807.8875,-140.9909 3811.3875,-150.991 3814.8875,-140.991 3807.8875,-140.9909"/>
</g>
<!-- TabsPageRoutingModule -->
<g id="node34" class="node">
<title>TabsPageRoutingModule</title>
<polygon fill="#8dd3c7" stroke="#000000" points="3779.5912,-122 3776.5912,-126 3755.5912,-126 3752.5912,-122 3620.4088,-122 3620.4088,-86 3779.5912,-86 3779.5912,-122"/>
<text text-anchor="middle" x="3700" y="-99.8" font-family="Times,serif" font-size="14.00" fill="#000000">TabsPageRoutingModule</text>
</g>
<!-- TabsPageRoutingModule&#45;&gt;TabsPageModule -->
<g id="edge34" class="edge">
<title>TabsPageRoutingModule&#45;&gt;TabsPageModule</title>
<path fill="none" stroke="#000000" d="M3742.2795,-122.1061C3742.2795,-122.1061 3742.2795,-140.991 3742.2795,-140.991"/>
<polygon fill="#000000" stroke="#000000" points="3738.7795,-140.9909 3742.2795,-150.991 3745.7795,-140.991 3738.7795,-140.9909"/>
</g>
</g>
</svg>
