<?xml version="1.0" encoding="UTF-8" standalone="no"?>
<!DOCTYPE svg PUBLIC "-//W3C//DTD SVG 1.1//EN"
 "http://www.w3.org/Graphics/SVG/1.1/DTD/svg11.dtd">
<!-- Generated by graphviz version 2.40.1 (20161225.0304)
 -->
<!-- Title: dependencies Pages: 1 -->
<svg width="3603pt" height="284pt"
 viewBox="0.00 0.00 3603.00 284.00" xmlns="http://www.w3.org/2000/svg" xmlns:xlink="http://www.w3.org/1999/xlink">
<g id="graph0" class="graph" transform="scale(1 1) rotate(0) translate(4 280)">
<title>dependencies</title>
<polygon fill="#ffffff" stroke="transparent" points="-4,4 -4,-280 3599,-280 3599,4 -4,4"/>
<text text-anchor="start" x="1776.5091" y="-42.4" font-family="sans-serif" font-weight="bold" font-size="14.00" fill="#000000">Legend</text>
<polygon fill="#ffffb3" stroke="transparent" points="1563.5,-10 1563.5,-30 1583.5,-30 1583.5,-10 1563.5,-10"/>
<text text-anchor="start" x="1587.129" y="-15.4" font-family="sans-serif" font-size="14.00" fill="#000000"> &#160;Declarations</text>
<polygon fill="#8dd3c7" stroke="transparent" points="1676.5,-10 1676.5,-30 1696.5,-30 1696.5,-10 1676.5,-10"/>
<text text-anchor="start" x="1700.2251" y="-15.4" font-family="sans-serif" font-size="14.00" fill="#000000"> &#160;Module</text>
<polygon fill="#80b1d3" stroke="transparent" points="1762.5,-10 1762.5,-30 1782.5,-30 1782.5,-10 1762.5,-10"/>
<text text-anchor="start" x="1786.2812" y="-15.4" font-family="sans-serif" font-size="14.00" fill="#000000"> &#160;Bootstrap</text>
<polygon fill="#fdb462" stroke="transparent" points="1859.5,-10 1859.5,-30 1879.5,-30 1879.5,-10 1859.5,-10"/>
<text text-anchor="start" x="1883.1732" y="-15.4" font-family="sans-serif" font-size="14.00" fill="#000000"> &#160;Providers</text>
<polygon fill="#fb8072" stroke="transparent" points="1955.5,-10 1955.5,-30 1975.5,-30 1975.5,-10 1955.5,-10"/>
<text text-anchor="start" x="1979.2258" y="-15.4" font-family="sans-serif" font-size="14.00" fill="#000000"> &#160;Exports</text>
<g id="clust1" class="cluster">
<title>cluster_AddMealPageModule</title>
<polygon fill="none" stroke="#000000" stroke-dasharray="1,5" points="8,-70 8,-195 164,-195 164,-70 8,-70"/>
</g>
<g id="clust2" class="cluster">
<title>cluster_AddMealPageModule_declarations</title>
<polygon fill="none" stroke="#000000" points="37,-78 37,-130 149,-130 149,-78 37,-78"/>
</g>
<g id="clust8" class="cluster">
<title>cluster_AllergiesPageModule</title>
<polygon fill="none" stroke="#000000" stroke-dasharray="1,5" points="2743,-70 2743,-195 2897,-195 2897,-70 2743,-70"/>
</g>
<g id="clust9" class="cluster">
<title>cluster_AllergiesPageModule_declarations</title>
<polygon fill="none" stroke="#000000" points="2758,-78 2758,-130 2868,-130 2868,-78 2758,-78"/>
</g>
<g id="clust15" class="cluster">
<title>cluster_AppModule</title>
<polygon fill="none" stroke="#000000" stroke-dasharray="1,5" points="678,-70 678,-268 1893,-268 1893,-70 678,-70"/>
</g>
<g id="clust16" class="cluster">
<title>cluster_AppModule_declarations</title>
<polygon fill="none" stroke="#000000" points="838,-78 838,-130 1885,-130 1885,-78 838,-78"/>
</g>
<g id="clust28" class="cluster">
<title>cluster_AppModule_imports</title>
<polygon fill="none" stroke="#000000" points="686,-78 686,-130 830,-130 830,-78 686,-78"/>
</g>
<g id="clust30" class="cluster">
<title>cluster_AppModule_bootstrap</title>
<polygon fill="none" stroke="#000000" points="1225,-208 1225,-260 1349,-260 1349,-208 1225,-208"/>
</g>
<g id="clust38" class="cluster">
<title>cluster_EditUserPageModule</title>
<polygon fill="none" stroke="#000000" stroke-dasharray="1,5" points="1901,-143 1901,-195 2053,-195 2053,-143 1901,-143"/>
</g>
<g id="clust45" class="cluster">
<title>cluster_ExperiencePageModule</title>
<polygon fill="none" stroke="#000000" stroke-dasharray="1,5" points="2061,-143 2061,-195 2227,-195 2227,-143 2061,-143"/>
</g>
<g id="clust52" class="cluster">
<title>cluster_FavoriteChefsPageModule</title>
<polygon fill="none" stroke="#000000" stroke-dasharray="1,5" points="2235,-143 2235,-195 2417,-195 2417,-143 2235,-143"/>
</g>
<g id="clust59" class="cluster">
<title>cluster_LogInPageModule</title>
<polygon fill="none" stroke="#000000" stroke-dasharray="1,5" points="2425,-143 2425,-195 2561,-195 2561,-143 2425,-143"/>
</g>
<g id="clust66" class="cluster">
<title>cluster_MealDetailPageModule</title>
<polygon fill="none" stroke="#000000" stroke-dasharray="1,5" points="2569,-143 2569,-195 2735,-195 2735,-143 2569,-143"/>
</g>
<g id="clust73" class="cluster">
<title>cluster_MealHistoryPageModule</title>
<polygon fill="none" stroke="#000000" stroke-dasharray="1,5" points="172,-143 172,-195 346,-195 346,-143 172,-143"/>
</g>
<g id="clust80" class="cluster">
<title>cluster_MealsPageModule</title>
<polygon fill="none" stroke="#000000" stroke-dasharray="1,5" points="2905,-70 2905,-195 3293,-195 3293,-70 2905,-70"/>
</g>
<g id="clust81" class="cluster">
<title>cluster_MealsPageModule_declarations</title>
<polygon fill="none" stroke="#000000" points="2913,-78 2913,-130 3285,-130 3285,-78 2913,-78"/>
</g>
<g id="clust89" class="cluster">
<title>cluster_OrdersPageModule</title>
<polygon fill="none" stroke="#000000" stroke-dasharray="1,5" points="354,-143 354,-195 494,-195 494,-143 354,-143"/>
</g>
<g id="clust96" class="cluster">
<title>cluster_ProfilePagePageModule</title>
<polygon fill="none" stroke="#000000" stroke-dasharray="1,5" points="502,-143 502,-268 670,-268 670,-143 502,-143"/>
</g>
<g id="clust100" class="cluster">
<title>cluster_ProfilePagePageModule_exports</title>
<polygon fill="none" stroke="#000000" points="529,-208 529,-260 643,-260 643,-208 529,-208"/>
</g>
<g id="clust103" class="cluster">
<title>cluster_TabsPageModule</title>
<polygon fill="none" stroke="#000000" stroke-dasharray="1,5" points="3301,-70 3301,-195 3587,-195 3587,-70 3301,-70"/>
</g>
<g id="clust104" class="cluster">
<title>cluster_TabsPageModule_declarations</title>
<polygon fill="none" stroke="#000000" points="3493,-78 3493,-130 3579,-130 3579,-78 3493,-78"/>
</g>
<g id="clust106" class="cluster">
<title>cluster_TabsPageModule_imports</title>
<polygon fill="none" stroke="#000000" points="3309,-78 3309,-130 3485,-130 3485,-78 3309,-78"/>
</g>
<!-- AddMealPage -->
<g id="node1" class="node">
<title>AddMealPage</title>
<polygon fill="#ffffb3" stroke="#000000" points="141.0828,-122 44.9172,-122 44.9172,-86 141.0828,-86 141.0828,-122"/>
<text text-anchor="middle" x="93" y="-99.8" font-family="Times,serif" font-size="14.00" fill="#000000">AddMealPage</text>
</g>
<!-- AddMealPageModule -->
<g id="node2" class="node">
<title>AddMealPageModule</title>
<polygon fill="#8dd3c7" stroke="#000000" points="155.6331,-187 152.6331,-191 131.6331,-191 128.6331,-187 16.3669,-187 16.3669,-151 155.6331,-151 155.6331,-187"/>
<text text-anchor="middle" x="86" y="-164.8" font-family="Times,serif" font-size="14.00" fill="#000000">AddMealPageModule</text>
</g>
<!-- AddMealPage&#45;&gt;AddMealPageModule -->
<g id="edge1" class="edge">
<title>AddMealPage&#45;&gt;AddMealPageModule</title>
<path fill="none" stroke="#000000" d="M93,-122.1061C93,-122.1061 93,-140.991 93,-140.991"/>
<polygon fill="#000000" stroke="#000000" points="89.5001,-140.9909 93,-150.991 96.5001,-140.991 89.5001,-140.9909"/>
</g>
<!-- AppModule -->
<g id="node14" class="node">
<title>AppModule</title>
<polygon fill="#8dd3c7" stroke="#000000" points="1328.6571,-187 1325.6571,-191 1304.6571,-191 1301.6571,-187 1245.3429,-187 1245.3429,-151 1328.6571,-151 1328.6571,-187"/>
<text text-anchor="middle" x="1287" y="-164.8" font-family="Times,serif" font-size="14.00" fill="#000000">AppModule</text>
</g>
<!-- AddMealPage&#45;&gt;AppModule -->
<g id="edge3" class="edge">
<title>AddMealPage&#45;&gt;AppModule</title>
<path fill="none" stroke="#000000" d="M141.3562,-104C281.4728,-104 677.8247,-104 677.8247,-104 677.8247,-104 677.8247,-182 677.8247,-182 677.8247,-182 1235.1289,-182 1235.1289,-182"/>
<polygon fill="#000000" stroke="#000000" points="1235.1289,-185.5001 1245.1289,-182 1235.1289,-178.5001 1235.1289,-185.5001"/>
</g>
<!-- AllergiesPage -->
<g id="node3" class="node">
<title>AllergiesPage</title>
<polygon fill="#ffffb3" stroke="#000000" points="2860.0258,-122 2765.9742,-122 2765.9742,-86 2860.0258,-86 2860.0258,-122"/>
<text text-anchor="middle" x="2813" y="-99.8" font-family="Times,serif" font-size="14.00" fill="#000000">AllergiesPage</text>
</g>
<!-- AllergiesPageModule -->
<g id="node4" class="node">
<title>AllergiesPageModule</title>
<polygon fill="#8dd3c7" stroke="#000000" points="2889.0744,-187 2886.0744,-191 2865.0744,-191 2862.0744,-187 2750.9256,-187 2750.9256,-151 2889.0744,-151 2889.0744,-187"/>
<text text-anchor="middle" x="2820" y="-164.8" font-family="Times,serif" font-size="14.00" fill="#000000">AllergiesPageModule</text>
</g>
<!-- AllergiesPage&#45;&gt;AllergiesPageModule -->
<g id="edge2" class="edge">
<title>AllergiesPage&#45;&gt;AllergiesPageModule</title>
<path fill="none" stroke="#000000" d="M2813,-122.1061C2813,-122.1061 2813,-140.991 2813,-140.991"/>
<polygon fill="#000000" stroke="#000000" points="2809.5001,-140.9909 2813,-150.991 2816.5001,-140.991 2809.5001,-140.9909"/>
</g>
<!-- AllergiesPage&#45;&gt;AppModule -->
<g id="edge4" class="edge">
<title>AllergiesPage&#45;&gt;AppModule</title>
<path fill="none" stroke="#000000" d="M2765.7893,-98C2577.8372,-98 1892.9155,-98 1892.9155,-98 1892.9155,-98 1892.9155,-182 1892.9155,-182 1892.9155,-182 1339.1257,-182 1339.1257,-182"/>
<polygon fill="#000000" stroke="#000000" points="1339.1258,-178.5001 1329.1257,-182 1339.1257,-185.5001 1339.1258,-178.5001"/>
</g>
<!-- AppComponent -->
<g id="node5" class="node">
<title>AppComponent</title>
<polygon fill="#ffffb3" stroke="#000000" points="1281.9399,-122 1176.0601,-122 1176.0601,-86 1281.9399,-86 1281.9399,-122"/>
<text text-anchor="middle" x="1229" y="-99.8" font-family="Times,serif" font-size="14.00" fill="#000000">AppComponent</text>
</g>
<!-- AppComponent&#45;&gt;AppModule -->
<g id="edge5" class="edge">
<title>AppComponent&#45;&gt;AppModule</title>
<path fill="none" stroke="#000000" d="M1263.4457,-122.1061C1263.4457,-122.1061 1263.4457,-140.991 1263.4457,-140.991"/>
<polygon fill="#000000" stroke="#000000" points="1259.9457,-140.9909 1263.4457,-150.991 1266.9457,-140.991 1259.9457,-140.9909"/>
</g>
<!-- EditUserPage -->
<g id="node6" class="node">
<title>EditUserPage</title>
<polygon fill="#ffffb3" stroke="#000000" points="1392.472,-122 1299.528,-122 1299.528,-86 1392.472,-86 1392.472,-122"/>
<text text-anchor="middle" x="1346" y="-99.8" font-family="Times,serif" font-size="14.00" fill="#000000">EditUserPage</text>
</g>
<!-- EditUserPage&#45;&gt;AppModule -->
<g id="edge6" class="edge">
<title>EditUserPage&#45;&gt;AppModule</title>
<path fill="none" stroke="#000000" d="M1314.1711,-122.1061C1314.1711,-122.1061 1314.1711,-140.991 1314.1711,-140.991"/>
<polygon fill="#000000" stroke="#000000" points="1310.6712,-140.9909 1314.1711,-150.991 1317.6712,-140.991 1310.6712,-140.9909"/>
</g>
<!-- EditUserPageModule -->
<g id="node17" class="node">
<title>EditUserPageModule</title>
<polygon fill="#8dd3c7" stroke="#000000" points="2045.0226,-187 2042.0226,-191 2021.0226,-191 2018.0226,-187 1908.9774,-187 1908.9774,-151 2045.0226,-151 2045.0226,-187"/>
<text text-anchor="middle" x="1977" y="-164.8" font-family="Times,serif" font-size="14.00" fill="#000000">EditUserPageModule</text>
</g>
<!-- EditUserPage&#45;&gt;EditUserPageModule -->
<g id="edge16" class="edge">
<title>EditUserPage&#45;&gt;EditUserPageModule</title>
<path fill="none" stroke="#000000" d="M1366.9778,-122.2396C1366.9778,-137.5706 1366.9778,-157 1366.9778,-157 1366.9778,-157 1898.7984,-157 1898.7984,-157"/>
<polygon fill="#000000" stroke="#000000" points="1898.7984,-160.5001 1908.7984,-157 1898.7983,-153.5001 1898.7984,-160.5001"/>
</g>
<!-- ExperiencePage -->
<g id="node7" class="node">
<title>ExperiencePage</title>
<polygon fill="#ffffb3" stroke="#000000" points="1517.1741,-122 1410.8259,-122 1410.8259,-86 1517.1741,-86 1517.1741,-122"/>
<text text-anchor="middle" x="1464" y="-99.8" font-family="Times,serif" font-size="14.00" fill="#000000">ExperiencePage</text>
</g>
<!-- ExperiencePage&#45;&gt;AppModule -->
<g id="edge7" class="edge">
<title>ExperiencePage&#45;&gt;AppModule</title>
<path fill="none" stroke="#000000" d="M1481.6957,-122.0336C1481.6957,-139.0597 1481.6957,-162 1481.6957,-162 1481.6957,-162 1338.7671,-162 1338.7671,-162"/>
<polygon fill="#000000" stroke="#000000" points="1338.7671,-158.5001 1328.7671,-162 1338.7671,-165.5001 1338.7671,-158.5001"/>
</g>
<!-- ExperiencePageModule -->
<g id="node18" class="node">
<title>ExperiencePageModule</title>
<polygon fill="#8dd3c7" stroke="#000000" points="2218.7241,-187 2215.7241,-191 2194.7241,-191 2191.7241,-187 2069.2759,-187 2069.2759,-151 2218.7241,-151 2218.7241,-187"/>
<text text-anchor="middle" x="2144" y="-164.8" font-family="Times,serif" font-size="14.00" fill="#000000">ExperiencePageModule</text>
</g>
<!-- ExperiencePage&#45;&gt;ExperiencePageModule -->
<g id="edge17" class="edge">
<title>ExperiencePage&#45;&gt;ExperiencePageModule</title>
<path fill="none" stroke="#000000" d="M1446.3043,-122.0449C1446.3043,-129.749 1446.3043,-137 1446.3043,-137 1446.3043,-137 2144,-137 2144,-137 2144,-137 2144,-140.7566 2144,-140.7566"/>
<polygon fill="#000000" stroke="#000000" points="2140.5001,-140.7566 2144,-150.7566 2147.5001,-140.7566 2140.5001,-140.7566"/>
</g>
<!-- FavoriteChefsPage -->
<g id="node8" class="node">
<title>FavoriteChefsPage</title>
<polygon fill="#ffffb3" stroke="#000000" points="1657.0227,-122 1534.9773,-122 1534.9773,-86 1657.0227,-86 1657.0227,-122"/>
<text text-anchor="middle" x="1596" y="-99.8" font-family="Times,serif" font-size="14.00" fill="#000000">FavoriteChefsPage</text>
</g>
<!-- FavoriteChefsPage&#45;&gt;AppModule -->
<g id="edge8" class="edge">
<title>FavoriteChefsPage&#45;&gt;AppModule</title>
<path fill="none" stroke="#000000" d="M1616.4203,-122.2222C1616.4203,-140.8285 1616.4203,-167 1616.4203,-167 1616.4203,-167 1338.7213,-167 1338.7213,-167"/>
<polygon fill="#000000" stroke="#000000" points="1338.7213,-163.5001 1328.7213,-167 1338.7213,-170.5001 1338.7213,-163.5001"/>
</g>
<!-- FavoriteChefsPageModule -->
<g id="node19" class="node">
<title>FavoriteChefsPageModule</title>
<polygon fill="#8dd3c7" stroke="#000000" points="2409.0716,-187 2406.0716,-191 2385.0716,-191 2382.0716,-187 2242.9284,-187 2242.9284,-151 2409.0716,-151 2409.0716,-187"/>
<text text-anchor="middle" x="2326" y="-164.8" font-family="Times,serif" font-size="14.00" fill="#000000">FavoriteChefsPageModule</text>
</g>
<!-- FavoriteChefsPage&#45;&gt;FavoriteChefsPageModule -->
<g id="edge18" class="edge">
<title>FavoriteChefsPage&#45;&gt;FavoriteChefsPageModule</title>
<path fill="none" stroke="#000000" d="M1575.5797,-122.207C1575.5797,-127.5549 1575.5797,-132 1575.5797,-132 1575.5797,-132 2326,-132 2326,-132 2326,-132 2326,-140.9336 2326,-140.9336"/>
<polygon fill="#000000" stroke="#000000" points="2322.5001,-140.9335 2326,-150.9336 2329.5001,-140.9336 2322.5001,-140.9335"/>
</g>
<!-- LogInPage -->
<g id="node9" class="node">
<title>LogInPage</title>
<polygon fill="#ffffb3" stroke="#000000" points="1752.9262,-122 1675.0738,-122 1675.0738,-86 1752.9262,-86 1752.9262,-122"/>
<text text-anchor="middle" x="1714" y="-99.8" font-family="Times,serif" font-size="14.00" fill="#000000">LogInPage</text>
</g>
<!-- LogInPage&#45;&gt;AppModule -->
<g id="edge9" class="edge">
<title>LogInPage&#45;&gt;AppModule</title>
<path fill="none" stroke="#000000" d="M1726.9042,-122.2228C1726.9042,-142.3652 1726.9042,-172 1726.9042,-172 1726.9042,-172 1338.7817,-172 1338.7817,-172"/>
<polygon fill="#000000" stroke="#000000" points="1338.7817,-168.5001 1328.7817,-172 1338.7817,-175.5001 1338.7817,-168.5001"/>
</g>
<!-- LogInPageModule -->
<g id="node20" class="node">
<title>LogInPageModule</title>
<polygon fill="#8dd3c7" stroke="#000000" points="2553.4748,-187 2550.4748,-191 2529.4748,-191 2526.4748,-187 2432.5252,-187 2432.5252,-151 2553.4748,-151 2553.4748,-187"/>
<text text-anchor="middle" x="2493" y="-164.8" font-family="Times,serif" font-size="14.00" fill="#000000">LogInPageModule</text>
</g>
<!-- LogInPage&#45;&gt;LogInPageModule -->
<g id="edge19" class="edge">
<title>LogInPage&#45;&gt;LogInPageModule</title>
<path fill="none" stroke="#000000" d="M1701.0958,-122.1223C1701.0958,-124.9729 1701.0958,-127 1701.0958,-127 1701.0958,-127 2493,-127 2493,-127 2493,-127 2493,-140.9445 2493,-140.9445"/>
<polygon fill="#000000" stroke="#000000" points="2489.5001,-140.9444 2493,-150.9445 2496.5001,-140.9445 2489.5001,-140.9444"/>
</g>
<!-- MealDetailPage -->
<g id="node10" class="node">
<title>MealDetailPage</title>
<polygon fill="#ffffb3" stroke="#000000" points="1877.184,-122 1770.816,-122 1770.816,-86 1877.184,-86 1877.184,-122"/>
<text text-anchor="middle" x="1824" y="-99.8" font-family="Times,serif" font-size="14.00" fill="#000000">MealDetailPage</text>
</g>
<!-- MealDetailPage&#45;&gt;AppModule -->
<g id="edge10" class="edge">
<title>MealDetailPage&#45;&gt;AppModule</title>
<path fill="none" stroke="#000000" d="M1824,-122.0449C1824,-143.6623 1824,-177 1824,-177 1824,-177 1338.6906,-177 1338.6906,-177"/>
<polygon fill="#000000" stroke="#000000" points="1338.6907,-173.5001 1328.6906,-177 1338.6906,-180.5001 1338.6907,-173.5001"/>
</g>
<!-- MealDetailPageModule -->
<g id="node21" class="node">
<title>MealDetailPageModule</title>
<polygon fill="#8dd3c7" stroke="#000000" points="2726.7338,-187 2723.7338,-191 2702.7338,-191 2699.7338,-187 2577.2662,-187 2577.2662,-151 2726.7338,-151 2726.7338,-187"/>
<text text-anchor="middle" x="2652" y="-164.8" font-family="Times,serif" font-size="14.00" fill="#000000">MealDetailPageModule</text>
</g>
<!-- MealDetailPage&#45;&gt;MealDetailPageModule -->
<g id="edge20" class="edge">
<title>MealDetailPage&#45;&gt;MealDetailPageModule</title>
<path fill="none" stroke="#000000" d="M1877.3716,-110C2060.4866,-110 2652,-110 2652,-110 2652,-110 2652,-140.9775 2652,-140.9775"/>
<polygon fill="#000000" stroke="#000000" points="2648.5001,-140.9774 2652,-150.9775 2655.5001,-140.9775 2648.5001,-140.9774"/>
</g>
<!-- MealHistoryPage -->
<g id="node11" class="node">
<title>MealHistoryPage</title>
<polygon fill="#ffffb3" stroke="#000000" points="959.9692,-122 846.0308,-122 846.0308,-86 959.9692,-86 959.9692,-122"/>
<text text-anchor="middle" x="903" y="-99.8" font-family="Times,serif" font-size="14.00" fill="#000000">MealHistoryPage</text>
</g>
<!-- MealHistoryPage&#45;&gt;AppModule -->
<g id="edge11" class="edge">
<title>MealHistoryPage&#45;&gt;AppModule</title>
<path fill="none" stroke="#000000" d="M921.9949,-122.2228C921.9949,-142.3652 921.9949,-172 921.9949,-172 921.9949,-172 1235.1293,-172 1235.1293,-172"/>
<polygon fill="#000000" stroke="#000000" points="1235.1293,-175.5001 1245.1293,-172 1235.1292,-168.5001 1235.1293,-175.5001"/>
</g>
<!-- MealHistoryPageModule -->
<g id="node22" class="node">
<title>MealHistoryPageModule</title>
<polygon fill="#8dd3c7" stroke="#000000" points="337.5197,-187 334.5197,-191 313.5197,-191 310.5197,-187 180.4803,-187 180.4803,-151 337.5197,-151 337.5197,-187"/>
<text text-anchor="middle" x="259" y="-164.8" font-family="Times,serif" font-size="14.00" fill="#000000">MealHistoryPageModule</text>
</g>
<!-- MealHistoryPage&#45;&gt;MealHistoryPageModule -->
<g id="edge21" class="edge">
<title>MealHistoryPage&#45;&gt;MealHistoryPageModule</title>
<path fill="none" stroke="#000000" d="M884.0051,-122.1097C884.0051,-131.897 884.0051,-142 884.0051,-142 884.0051,-142 259,-142 259,-142 259,-142 259,-142.8841 259,-142.8841"/>
<polygon fill="#000000" stroke="#000000" points="255.5001,-140.8408 259,-150.8408 262.5001,-140.8409 255.5001,-140.8408"/>
</g>
<!-- OrdersPage -->
<g id="node12" class="node">
<title>OrdersPage</title>
<polygon fill="#ffffb3" stroke="#000000" points="1059.7994,-122 978.2006,-122 978.2006,-86 1059.7994,-86 1059.7994,-122"/>
<text text-anchor="middle" x="1019" y="-99.8" font-family="Times,serif" font-size="14.00" fill="#000000">OrdersPage</text>
</g>
<!-- OrdersPage&#45;&gt;AppModule -->
<g id="edge12" class="edge">
<title>OrdersPage&#45;&gt;AppModule</title>
<path fill="none" stroke="#000000" d="M1032.5498,-122.2222C1032.5498,-140.8285 1032.5498,-167 1032.5498,-167 1032.5498,-167 1235.2677,-167 1235.2677,-167"/>
<polygon fill="#000000" stroke="#000000" points="1235.2677,-170.5001 1245.2677,-167 1235.2676,-163.5001 1235.2677,-170.5001"/>
</g>
<!-- OrdersPageModule -->
<g id="node27" class="node">
<title>OrdersPageModule</title>
<polygon fill="#8dd3c7" stroke="#000000" points="486.3487,-187 483.3487,-191 462.3487,-191 459.3487,-187 361.6513,-187 361.6513,-151 486.3487,-151 486.3487,-187"/>
<text text-anchor="middle" x="424" y="-164.8" font-family="Times,serif" font-size="14.00" fill="#000000">OrdersPageModule</text>
</g>
<!-- OrdersPage&#45;&gt;OrdersPageModule -->
<g id="edge25" class="edge">
<title>OrdersPage&#45;&gt;OrdersPageModule</title>
<path fill="none" stroke="#000000" d="M1005.4502,-122.4854C1005.4502,-134.1399 1005.4502,-147 1005.4502,-147 1005.4502,-147 424,-147 424,-147 424,-147 424,-147.3832 424,-147.3832"/>
<polygon fill="#000000" stroke="#000000" points="420.5003,-140.832 424,-150.8321 427.5003,-140.8322 420.5003,-140.832"/>
</g>
<!-- ProfilePage -->
<g id="node13" class="node">
<title>ProfilePage</title>
<polygon fill="#ffffb3" stroke="#000000" points="1158.812,-122 1077.188,-122 1077.188,-86 1158.812,-86 1158.812,-122"/>
<text text-anchor="middle" x="1118" y="-99.8" font-family="Times,serif" font-size="14.00" fill="#000000">ProfilePage</text>
</g>
<!-- ProfilePage&#45;&gt;AppModule -->
<g id="edge13" class="edge">
<title>ProfilePage&#45;&gt;AppModule</title>
<path fill="none" stroke="#000000" d="M1131.5519,-122.0336C1131.5519,-139.0597 1131.5519,-162 1131.5519,-162 1131.5519,-162 1235.3428,-162 1235.3428,-162"/>
<polygon fill="#000000" stroke="#000000" points="1235.3428,-165.5001 1245.3428,-162 1235.3427,-158.5001 1235.3428,-165.5001"/>
</g>
<!-- ProfilePagePageModule -->
<g id="node28" class="node">
<title>ProfilePagePageModule</title>
<polygon fill="#8dd3c7" stroke="#000000" points="662.073,-187 659.073,-191 638.073,-191 635.073,-187 509.927,-187 509.927,-151 662.073,-151 662.073,-187"/>
<text text-anchor="middle" x="586" y="-164.8" font-family="Times,serif" font-size="14.00" fill="#000000">ProfilePagePageModule</text>
</g>
<!-- ProfilePage&#45;&gt;ProfilePagePageModule -->
<g id="edge26" class="edge">
<title>ProfilePage&#45;&gt;ProfilePagePageModule</title>
<path fill="none" stroke="#000000" d="M1104.4481,-122.2396C1104.4481,-137.5706 1104.4481,-157 1104.4481,-157 1104.4481,-157 672.2202,-157 672.2202,-157"/>
<polygon fill="#000000" stroke="#000000" points="672.2203,-153.5001 662.2202,-157 672.2202,-160.5001 672.2203,-153.5001"/>
</g>
<!-- AppComponent  -->
<g id="node16" class="node">
<title>AppComponent </title>
<polygon fill="#80b1d3" stroke="#000000" points="1341.439,-252 1232.561,-252 1232.561,-216 1341.439,-216 1341.439,-252"/>
<text text-anchor="middle" x="1287" y="-229.8" font-family="Times,serif" font-size="14.00" fill="#000000">AppComponent </text>
</g>
<!-- AppModule&#45;&gt;AppComponent  -->
<g id="edge15" class="edge">
<title>AppModule&#45;&gt;AppComponent </title>
<path fill="none" stroke="#000000" stroke-dasharray="1,5" d="M1287,-187.1061C1287,-187.1061 1287,-205.991 1287,-205.991"/>
<polygon fill="#000000" stroke="#000000" points="1283.5001,-205.9909 1287,-215.991 1290.5001,-205.991 1283.5001,-205.9909"/>
</g>
<!-- AppRoutingModule -->
<g id="node15" class="node">
<title>AppRoutingModule</title>
<polygon fill="#8dd3c7" stroke="#000000" points="822.2744,-122 819.2744,-126 798.2744,-126 795.2744,-122 693.7256,-122 693.7256,-86 822.2744,-86 822.2744,-122"/>
<text text-anchor="middle" x="758" y="-99.8" font-family="Times,serif" font-size="14.00" fill="#000000">AppRoutingModule</text>
</g>
<!-- AppRoutingModule&#45;&gt;AppModule -->
<g id="edge14" class="edge">
<title>AppRoutingModule&#45;&gt;AppModule</title>
<path fill="none" stroke="#000000" d="M758,-122.0449C758,-143.6623 758,-177 758,-177 758,-177 1235.0481,-177 1235.0481,-177"/>
<polygon fill="#000000" stroke="#000000" points="1235.0481,-180.5001 1245.0481,-177 1235.0481,-173.5001 1235.0481,-180.5001"/>
</g>
<!-- MapComponent -->
<g id="node23" class="node">
<title>MapComponent</title>
<polygon fill="#ffffb3" stroke="#000000" points="3181.4916,-122 3074.5084,-122 3074.5084,-86 3181.4916,-86 3181.4916,-122"/>
<text text-anchor="middle" x="3128" y="-99.8" font-family="Times,serif" font-size="14.00" fill="#000000">MapComponent</text>
</g>
<!-- MealsPageModule -->
<g id="node26" class="node">
<title>MealsPageModule</title>
<polygon fill="#8dd3c7" stroke="#000000" points="3188.4706,-187 3185.4706,-191 3164.4706,-191 3161.4706,-187 3067.5294,-187 3067.5294,-151 3188.4706,-151 3188.4706,-187"/>
<text text-anchor="middle" x="3128" y="-164.8" font-family="Times,serif" font-size="14.00" fill="#000000">MealsPageModule</text>
</g>
<!-- MapComponent&#45;&gt;MealsPageModule -->
<g id="edge22" class="edge">
<title>MapComponent&#45;&gt;MealsPageModule</title>
<path fill="none" stroke="#000000" d="M3128,-122.1061C3128,-122.1061 3128,-140.991 3128,-140.991"/>
<polygon fill="#000000" stroke="#000000" points="3124.5001,-140.9909 3128,-150.991 3131.5001,-140.991 3124.5001,-140.9909"/>
</g>
<!-- MealItemComponent -->
<g id="node24" class="node">
<title>MealItemComponent</title>
<polygon fill="#ffffb3" stroke="#000000" points="3056.7534,-122 2921.2466,-122 2921.2466,-86 3056.7534,-86 3056.7534,-122"/>
<text text-anchor="middle" x="2989" y="-99.8" font-family="Times,serif" font-size="14.00" fill="#000000">MealItemComponent</text>
</g>
<!-- MealItemComponent&#45;&gt;MealsPageModule -->
<g id="edge23" class="edge">
<title>MealItemComponent&#45;&gt;MealsPageModule</title>
<path fill="none" stroke="#000000" d="M2989,-122.1061C2989,-141.3391 2989,-169 2989,-169 2989,-169 3057.4369,-169 3057.4369,-169"/>
<polygon fill="#000000" stroke="#000000" points="3057.437,-172.5001 3067.4369,-169 3057.4369,-165.5001 3057.437,-172.5001"/>
</g>
<!-- MealsPage -->
<g id="node25" class="node">
<title>MealsPage</title>
<polygon fill="#ffffb3" stroke="#000000" points="3276.9219,-122 3199.0781,-122 3199.0781,-86 3276.9219,-86 3276.9219,-122"/>
<text text-anchor="middle" x="3238" y="-99.8" font-family="Times,serif" font-size="14.00" fill="#000000">MealsPage</text>
</g>
<!-- MealsPage&#45;&gt;MealsPageModule -->
<g id="edge24" class="edge">
<title>MealsPage&#45;&gt;MealsPageModule</title>
<path fill="none" stroke="#000000" d="M3238,-122.1061C3238,-141.3391 3238,-169 3238,-169 3238,-169 3198.7912,-169 3198.7912,-169"/>
<polygon fill="#000000" stroke="#000000" points="3198.7913,-165.5001 3188.7912,-169 3198.7912,-172.5001 3198.7913,-165.5001"/>
</g>
<!-- ModalService  -->
<g id="node29" class="node">
<title>ModalService </title>
<polygon fill="#fb8072" stroke="#000000" points="635.0274,-252 536.9726,-252 536.9726,-216 635.0274,-216 635.0274,-252"/>
<text text-anchor="middle" x="586" y="-229.8" font-family="Times,serif" font-size="14.00" fill="#000000">ModalService </text>
</g>
<!-- ProfilePagePageModule&#45;&gt;ModalService  -->
<g id="edge27" class="edge">
<title>ProfilePagePageModule&#45;&gt;ModalService </title>
<path fill="none" stroke="#000000" stroke-dasharray="5,2" d="M586,-187.1061C586,-187.1061 586,-205.991 586,-205.991"/>
<polygon fill="#000000" stroke="#000000" points="582.5001,-205.9909 586,-215.991 589.5001,-205.991 582.5001,-205.9909"/>
</g>
<!-- TabsPage -->
<g id="node30" class="node">
<title>TabsPage</title>
<polygon fill="#ffffb3" stroke="#000000" points="3571.4249,-122 3500.5751,-122 3500.5751,-86 3571.4249,-86 3571.4249,-122"/>
<text text-anchor="middle" x="3536" y="-99.8" font-family="Times,serif" font-size="14.00" fill="#000000">TabsPage</text>
</g>
<!-- TabsPageModule -->
<g id="node31" class="node">
<title>TabsPageModule</title>
<polygon fill="#8dd3c7" stroke="#000000" points="3515.9734,-187 3512.9734,-191 3491.9734,-191 3488.9734,-187 3402.0266,-187 3402.0266,-151 3515.9734,-151 3515.9734,-187"/>
<text text-anchor="middle" x="3459" y="-164.8" font-family="Times,serif" font-size="14.00" fill="#000000">TabsPageModule</text>
</g>
<!-- TabsPage&#45;&gt;TabsPageModule -->
<g id="edge28" class="edge">
<title>TabsPage&#45;&gt;TabsPageModule</title>
<path fill="none" stroke="#000000" d="M3508.3875,-122.1061C3508.3875,-122.1061 3508.3875,-140.991 3508.3875,-140.991"/>
<polygon fill="#000000" stroke="#000000" points="3504.8875,-140.9909 3508.3875,-150.991 3511.8875,-140.991 3504.8875,-140.9909"/>
</g>
<!-- TabsPageRoutingModule -->
<g id="node32" class="node">
<title>TabsPageRoutingModule</title>
<polygon fill="#8dd3c7" stroke="#000000" points="3476.5912,-122 3473.5912,-126 3452.5912,-126 3449.5912,-122 3317.4088,-122 3317.4088,-86 3476.5912,-86 3476.5912,-122"/>
<text text-anchor="middle" x="3397" y="-99.8" font-family="Times,serif" font-size="14.00" fill="#000000">TabsPageRoutingModule</text>
</g>
<!-- TabsPageRoutingModule&#45;&gt;TabsPageModule -->
<g id="edge29" class="edge">
<title>TabsPageRoutingModule&#45;&gt;TabsPageModule</title>
<path fill="none" stroke="#000000" d="M3439.2795,-122.1061C3439.2795,-122.1061 3439.2795,-140.991 3439.2795,-140.991"/>
<polygon fill="#000000" stroke="#000000" points="3435.7795,-140.9909 3439.2795,-150.991 3442.7795,-140.991 3435.7795,-140.9909"/>
</g>
</g>
</svg>
