<?xml version="1.0" encoding="UTF-8" standalone="no"?>
<!DOCTYPE svg PUBLIC "-//W3C//DTD SVG 1.1//EN"
 "http://www.w3.org/Graphics/SVG/1.1/DTD/svg11.dtd">
<!-- Generated by graphviz version 2.40.1 (20161225.0304)
 -->
<!-- Title: dependencies Pages: 1 -->
<svg width="504pt" height="211pt"
 viewBox="0.00 0.00 504.00 211.00" xmlns="http://www.w3.org/2000/svg" xmlns:xlink="http://www.w3.org/1999/xlink">
<g id="graph0" class="graph" transform="scale(1 1) rotate(0) translate(4 207)">
<title>dependencies</title>
<polygon fill="#ffffff" stroke="transparent" points="-4,4 -4,-207 500,-207 500,4 -4,4"/>
<text text-anchor="start" x="227.0091" y="-42.4" font-family="sans-serif" font-weight="bold" font-size="14.00" fill="#000000">Legend</text>
<polygon fill="#ffffb3" stroke="transparent" points="14,-10 14,-30 34,-30 34,-10 14,-10"/>
<text text-anchor="start" x="37.629" y="-15.4" font-family="sans-serif" font-size="14.00" fill="#000000"> &#160;Declarations</text>
<polygon fill="#8dd3c7" stroke="transparent" points="127,-10 127,-30 147,-30 147,-10 127,-10"/>
<text text-anchor="start" x="150.7251" y="-15.4" font-family="sans-serif" font-size="14.00" fill="#000000"> &#160;Module</text>
<polygon fill="#80b1d3" stroke="transparent" points="213,-10 213,-30 233,-30 233,-10 213,-10"/>
<text text-anchor="start" x="236.7812" y="-15.4" font-family="sans-serif" font-size="14.00" fill="#000000"> &#160;Bootstrap</text>
<polygon fill="#fdb462" stroke="transparent" points="310,-10 310,-30 330,-30 330,-10 310,-10"/>
<text text-anchor="start" x="333.6732" y="-15.4" font-family="sans-serif" font-size="14.00" fill="#000000"> &#160;Providers</text>
<polygon fill="#fb8072" stroke="transparent" points="406,-10 406,-30 426,-30 426,-10 406,-10"/>
<text text-anchor="start" x="429.7258" y="-15.4" font-family="sans-serif" font-size="14.00" fill="#000000"> &#160;Exports</text>
<g id="clust1" class="cluster">
<title>cluster_FavoriteChefsPageModule</title>
<polygon fill="none" stroke="#000000" stroke-dasharray="1,5" points="94,-70 94,-195 402,-195 402,-70 94,-70"/>
</g>
<g id="clust2" class="cluster">
<title>cluster_FavoriteChefsPageModule_declarations</title>
<polygon fill="none" stroke="#000000" points="102,-78 102,-130 394,-130 394,-78 102,-78"/>
</g>
<!-- ChefCardComponent -->
<g id="node1" class="node">
<title>ChefCardComponent</title>
<polygon fill="#ffffb3" stroke="#000000" points="385.7562,-122 250.2438,-122 250.2438,-86 385.7562,-86 385.7562,-122"/>
<text text-anchor="middle" x="318" y="-99.8" font-family="Times,serif" font-size="14.00" fill="#000000">ChefCardComponent</text>
</g>
<!-- FavoriteChefsPageModule -->
<g id="node3" class="node">
<title>FavoriteChefsPageModule</title>
<polygon fill="#8dd3c7" stroke="#000000" points="331.0716,-187 328.0716,-191 307.0716,-191 304.0716,-187 164.9284,-187 164.9284,-151 331.0716,-151 331.0716,-187"/>
<text text-anchor="middle" x="248" y="-164.8" font-family="Times,serif" font-size="14.00" fill="#000000">FavoriteChefsPageModule</text>
</g>
<!-- ChefCardComponent&#45;&gt;FavoriteChefsPageModule -->
<g id="edge1" class="edge">
<title>ChefCardComponent&#45;&gt;FavoriteChefsPageModule</title>
<path fill="none" stroke="#000000" d="M290.5789,-122.1061C290.5789,-122.1061 290.5789,-140.991 290.5789,-140.991"/>
<polygon fill="#000000" stroke="#000000" points="287.079,-140.9909 290.5789,-150.991 294.079,-140.991 287.079,-140.9909"/>
</g>
<!-- FavoriteChefsPage -->
<g id="node2" class="node">
<title>FavoriteChefsPage</title>
<polygon fill="#ffffb3" stroke="#000000" points="232.0227,-122 109.9773,-122 109.9773,-86 232.0227,-86 232.0227,-122"/>
<text text-anchor="middle" x="171" y="-99.8" font-family="Times,serif" font-size="14.00" fill="#000000">FavoriteChefsPage</text>
</g>
<!-- FavoriteChefsPage&#45;&gt;FavoriteChefsPageModule -->
<g id="edge2" class="edge">
<title>FavoriteChefsPage&#45;&gt;FavoriteChefsPageModule</title>
<path fill="none" stroke="#000000" d="M198.6126,-122.1061C198.6126,-122.1061 198.6126,-140.991 198.6126,-140.991"/>
<polygon fill="#000000" stroke="#000000" points="195.1126,-140.9909 198.6126,-150.991 202.1126,-140.991 195.1126,-140.9909"/>
</g>
</g>
</svg>
