<?xml version="1.0" encoding="UTF-8" standalone="no"?>
<!DOCTYPE svg PUBLIC "-//W3C//DTD SVG 1.1//EN"
 "http://www.w3.org/Graphics/SVG/1.1/DTD/svg11.dtd">
<!-- Generated by graphviz version 2.40.1 (20161225.0304)
 -->
<!-- Title: dependencies Pages: 1 -->
<svg width="1620pt" height="284pt"
 viewBox="0.00 0.00 1620.00 284.00" xmlns="http://www.w3.org/2000/svg" xmlns:xlink="http://www.w3.org/1999/xlink">
<g id="graph0" class="graph" transform="scale(1 1) rotate(0) translate(4 280)">
<title>dependencies</title>
<polygon fill="#ffffff" stroke="transparent" points="-4,4 -4,-280 1616,-280 1616,4 -4,4"/>
<text text-anchor="start" x="785.0091" y="-42.4" font-family="sans-serif" font-weight="bold" font-size="14.00" fill="#000000">Legend</text>
<polygon fill="#ffffb3" stroke="transparent" points="572,-10 572,-30 592,-30 592,-10 572,-10"/>
<text text-anchor="start" x="595.629" y="-15.4" font-family="sans-serif" font-size="14.00" fill="#000000"> &#160;Declarations</text>
<polygon fill="#8dd3c7" stroke="transparent" points="685,-10 685,-30 705,-30 705,-10 685,-10"/>
<text text-anchor="start" x="708.7251" y="-15.4" font-family="sans-serif" font-size="14.00" fill="#000000"> &#160;Module</text>
<polygon fill="#80b1d3" stroke="transparent" points="771,-10 771,-30 791,-30 791,-10 771,-10"/>
<text text-anchor="start" x="794.7812" y="-15.4" font-family="sans-serif" font-size="14.00" fill="#000000"> &#160;Bootstrap</text>
<polygon fill="#fdb462" stroke="transparent" points="868,-10 868,-30 888,-30 888,-10 868,-10"/>
<text text-anchor="start" x="891.6732" y="-15.4" font-family="sans-serif" font-size="14.00" fill="#000000"> &#160;Providers</text>
<polygon fill="#fb8072" stroke="transparent" points="964,-10 964,-30 984,-30 984,-10 964,-10"/>
<text text-anchor="start" x="987.7258" y="-15.4" font-family="sans-serif" font-size="14.00" fill="#000000"> &#160;Exports</text>
<g id="clust1" class="cluster">
<title>cluster_AppModule</title>
<polygon fill="none" stroke="#000000" stroke-dasharray="1,5" points="8,-70 8,-268 1604,-268 1604,-70 8,-70"/>
</g>
<g id="clust2" class="cluster">
<title>cluster_AppModule_declarations</title>
<polygon fill="none" stroke="#000000" points="168,-78 168,-130 1596,-130 1596,-78 168,-78"/>
</g>
<g id="clust15" class="cluster">
<title>cluster_AppModule_imports</title>
<polygon fill="none" stroke="#000000" points="16,-78 16,-130 160,-130 160,-78 16,-78"/>
</g>
<g id="clust17" class="cluster">
<title>cluster_AppModule_bootstrap</title>
<polygon fill="none" stroke="#000000" points="726,-208 726,-260 850,-260 850,-208 726,-208"/>
</g>
<!-- AddMealPage -->
<g id="node1" class="node">
<title>AddMealPage</title>
<polygon fill="#ffffb3" stroke="#000000" points="1588.0828,-122 1491.9172,-122 1491.9172,-86 1588.0828,-86 1588.0828,-122"/>
<text text-anchor="middle" x="1540" y="-99.8" font-family="Times,serif" font-size="14.00" fill="#000000">AddMealPage</text>
</g>
<!-- AppModule -->
<g id="node13" class="node">
<title>AppModule</title>
<polygon fill="#8dd3c7" stroke="#000000" points="829.6571,-187 826.6571,-191 805.6571,-191 802.6571,-187 746.3429,-187 746.3429,-151 829.6571,-151 829.6571,-187"/>
<text text-anchor="middle" x="788" y="-164.8" font-family="Times,serif" font-size="14.00" fill="#000000">AppModule</text>
</g>
<!-- AddMealPage&#45;&gt;AppModule -->
<g id="edge1" class="edge">
<title>AddMealPage&#45;&gt;AppModule</title>
<path fill="none" stroke="#000000" d="M1540,-122.0908C1540,-145.1328 1540,-182 1540,-182 1540,-182 839.7717,-182 839.7717,-182"/>
<polygon fill="#000000" stroke="#000000" points="839.7717,-178.5001 829.7717,-182 839.7716,-185.5001 839.7717,-178.5001"/>
</g>
<!-- AllergiesPage -->
<g id="node2" class="node">
<title>AllergiesPage</title>
<polygon fill="#ffffb3" stroke="#000000" points="1474.0258,-122 1379.9742,-122 1379.9742,-86 1474.0258,-86 1474.0258,-122"/>
<text text-anchor="middle" x="1427" y="-99.8" font-family="Times,serif" font-size="14.00" fill="#000000">AllergiesPage</text>
</g>
<!-- AllergiesPage&#45;&gt;AppModule -->
<g id="edge2" class="edge">
<title>AllergiesPage&#45;&gt;AppModule</title>
<path fill="none" stroke="#000000" d="M1427,-122.0449C1427,-143.6623 1427,-177 1427,-177 1427,-177 839.9266,-177 839.9266,-177"/>
<polygon fill="#000000" stroke="#000000" points="839.9266,-173.5001 829.9266,-177 839.9265,-180.5001 839.9266,-173.5001"/>
</g>
<!-- AppComponent -->
<g id="node3" class="node">
<title>AppComponent</title>
<polygon fill="#ffffb3" stroke="#000000" points="1361.9399,-122 1256.0601,-122 1256.0601,-86 1361.9399,-86 1361.9399,-122"/>
<text text-anchor="middle" x="1309" y="-99.8" font-family="Times,serif" font-size="14.00" fill="#000000">AppComponent</text>
</g>
<!-- AppComponent&#45;&gt;AppModule -->
<g id="edge3" class="edge">
<title>AppComponent&#45;&gt;AppModule</title>
<path fill="none" stroke="#000000" d="M1309,-122.2228C1309,-142.3652 1309,-172 1309,-172 1309,-172 839.7549,-172 839.7549,-172"/>
<polygon fill="#000000" stroke="#000000" points="839.755,-168.5001 829.7549,-172 839.7549,-175.5001 839.755,-168.5001"/>
</g>
<!-- ChefCardComponent -->
<g id="node4" class="node">
<title>ChefCardComponent</title>
<polygon fill="#ffffb3" stroke="#000000" points="1237.7562,-122 1102.2438,-122 1102.2438,-86 1237.7562,-86 1237.7562,-122"/>
<text text-anchor="middle" x="1170" y="-99.8" font-family="Times,serif" font-size="14.00" fill="#000000">ChefCardComponent</text>
</g>
<!-- ChefCardComponent&#45;&gt;AppModule -->
<g id="edge4" class="edge">
<title>ChefCardComponent&#45;&gt;AppModule</title>
<path fill="none" stroke="#000000" d="M1170,-122.2222C1170,-140.8285 1170,-167 1170,-167 1170,-167 839.9734,-167 839.9734,-167"/>
<polygon fill="#000000" stroke="#000000" points="839.9734,-163.5001 829.9734,-167 839.9734,-170.5001 839.9734,-163.5001"/>
</g>
<!-- EditUserPage -->
<g id="node5" class="node">
<title>EditUserPage</title>
<polygon fill="#ffffb3" stroke="#000000" points="1084.472,-122 991.528,-122 991.528,-86 1084.472,-86 1084.472,-122"/>
<text text-anchor="middle" x="1038" y="-99.8" font-family="Times,serif" font-size="14.00" fill="#000000">EditUserPage</text>
</g>
<!-- EditUserPage&#45;&gt;AppModule -->
<g id="edge5" class="edge">
<title>EditUserPage&#45;&gt;AppModule</title>
<path fill="none" stroke="#000000" d="M1038,-122.0336C1038,-139.0597 1038,-162 1038,-162 1038,-162 839.8444,-162 839.8444,-162"/>
<polygon fill="#000000" stroke="#000000" points="839.8444,-158.5001 829.8444,-162 839.8443,-165.5001 839.8444,-158.5001"/>
</g>
<!-- ExperiencePage -->
<g id="node6" class="node">
<title>ExperiencePage</title>
<polygon fill="#ffffb3" stroke="#000000" points="973.1741,-122 866.8259,-122 866.8259,-86 973.1741,-86 973.1741,-122"/>
<text text-anchor="middle" x="920" y="-99.8" font-family="Times,serif" font-size="14.00" fill="#000000">ExperiencePage</text>
</g>
<!-- ExperiencePage&#45;&gt;AppModule -->
<g id="edge6" class="edge">
<title>ExperiencePage&#45;&gt;AppModule</title>
<path fill="none" stroke="#000000" d="M920,-122.2396C920,-137.5706 920,-157 920,-157 920,-157 839.7656,-157 839.7656,-157"/>
<polygon fill="#000000" stroke="#000000" points="839.7657,-153.5001 829.7656,-157 839.7656,-160.5001 839.7657,-153.5001"/>
</g>
<!-- FavoriteChefsPage -->
<g id="node7" class="node">
<title>FavoriteChefsPage</title>
<polygon fill="#ffffb3" stroke="#000000" points="849.0227,-122 726.9773,-122 726.9773,-86 849.0227,-86 849.0227,-122"/>
<text text-anchor="middle" x="788" y="-99.8" font-family="Times,serif" font-size="14.00" fill="#000000">FavoriteChefsPage</text>
</g>
<!-- FavoriteChefsPage&#45;&gt;AppModule -->
<g id="edge7" class="edge">
<title>FavoriteChefsPage&#45;&gt;AppModule</title>
<path fill="none" stroke="#000000" d="M788,-122.1061C788,-122.1061 788,-140.991 788,-140.991"/>
<polygon fill="#000000" stroke="#000000" points="784.5001,-140.9909 788,-150.991 791.5001,-140.991 784.5001,-140.9909"/>
</g>
<!-- LogInPage -->
<g id="node8" class="node">
<title>LogInPage</title>
<polygon fill="#ffffb3" stroke="#000000" points="708.9262,-122 631.0738,-122 631.0738,-86 708.9262,-86 708.9262,-122"/>
<text text-anchor="middle" x="670" y="-99.8" font-family="Times,serif" font-size="14.00" fill="#000000">LogInPage</text>
</g>
<!-- LogInPage&#45;&gt;AppModule -->
<g id="edge8" class="edge">
<title>LogInPage&#45;&gt;AppModule</title>
<path fill="none" stroke="#000000" d="M670,-122.2396C670,-137.5706 670,-157 670,-157 670,-157 736.0654,-157 736.0654,-157"/>
<polygon fill="#000000" stroke="#000000" points="736.0654,-160.5001 746.0654,-157 736.0653,-153.5001 736.0654,-160.5001"/>
</g>
<!-- MealDetailPage -->
<g id="node9" class="node">
<title>MealDetailPage</title>
<polygon fill="#ffffb3" stroke="#000000" points="613.184,-122 506.816,-122 506.816,-86 613.184,-86 613.184,-122"/>
<text text-anchor="middle" x="560" y="-99.8" font-family="Times,serif" font-size="14.00" fill="#000000">MealDetailPage</text>
</g>
<!-- MealDetailPage&#45;&gt;AppModule -->
<g id="edge9" class="edge">
<title>MealDetailPage&#45;&gt;AppModule</title>
<path fill="none" stroke="#000000" d="M560,-122.0336C560,-139.0597 560,-162 560,-162 560,-162 736.1813,-162 736.1813,-162"/>
<polygon fill="#000000" stroke="#000000" points="736.1813,-165.5001 746.1813,-162 736.1813,-158.5001 736.1813,-165.5001"/>
</g>
<!-- MealHistoryPage -->
<g id="node10" class="node">
<title>MealHistoryPage</title>
<polygon fill="#ffffb3" stroke="#000000" points="488.9692,-122 375.0308,-122 375.0308,-86 488.9692,-86 488.9692,-122"/>
<text text-anchor="middle" x="432" y="-99.8" font-family="Times,serif" font-size="14.00" fill="#000000">MealHistoryPage</text>
</g>
<!-- MealHistoryPage&#45;&gt;AppModule -->
<g id="edge10" class="edge">
<title>MealHistoryPage&#45;&gt;AppModule</title>
<path fill="none" stroke="#000000" d="M432,-122.2222C432,-140.8285 432,-167 432,-167 432,-167 736.1154,-167 736.1154,-167"/>
<polygon fill="#000000" stroke="#000000" points="736.1155,-170.5001 746.1154,-167 736.1154,-163.5001 736.1155,-170.5001"/>
</g>
<!-- OrdersPage -->
<g id="node11" class="node">
<title>OrdersPage</title>
<polygon fill="#ffffb3" stroke="#000000" points="356.7994,-122 275.2006,-122 275.2006,-86 356.7994,-86 356.7994,-122"/>
<text text-anchor="middle" x="316" y="-99.8" font-family="Times,serif" font-size="14.00" fill="#000000">OrdersPage</text>
</g>
<!-- OrdersPage&#45;&gt;AppModule -->
<g id="edge11" class="edge">
<title>OrdersPage&#45;&gt;AppModule</title>
<path fill="none" stroke="#000000" d="M316,-122.2228C316,-142.3652 316,-172 316,-172 316,-172 736.1131,-172 736.1131,-172"/>
<polygon fill="#000000" stroke="#000000" points="736.1132,-175.5001 746.1131,-172 736.1131,-168.5001 736.1132,-175.5001"/>
</g>
<!-- ProfilePage -->
<g id="node12" class="node">
<title>ProfilePage</title>
<polygon fill="#ffffb3" stroke="#000000" points="257.812,-122 176.188,-122 176.188,-86 257.812,-86 257.812,-122"/>
<text text-anchor="middle" x="217" y="-99.8" font-family="Times,serif" font-size="14.00" fill="#000000">ProfilePage</text>
</g>
<!-- ProfilePage&#45;&gt;AppModule -->
<g id="edge12" class="edge">
<title>ProfilePage&#45;&gt;AppModule</title>
<path fill="none" stroke="#000000" d="M217,-122.0449C217,-143.6623 217,-177 217,-177 217,-177 736.013,-177 736.013,-177"/>
<polygon fill="#000000" stroke="#000000" points="736.013,-180.5001 746.013,-177 736.013,-173.5001 736.013,-180.5001"/>
</g>
<!-- AppComponent  -->
<g id="node15" class="node">
<title>AppComponent </title>
<polygon fill="#80b1d3" stroke="#000000" points="842.439,-252 733.561,-252 733.561,-216 842.439,-216 842.439,-252"/>
<text text-anchor="middle" x="788" y="-229.8" font-family="Times,serif" font-size="14.00" fill="#000000">AppComponent </text>
</g>
<!-- AppModule&#45;&gt;AppComponent  -->
<g id="edge14" class="edge">
<title>AppModule&#45;&gt;AppComponent </title>
<path fill="none" stroke="#000000" stroke-dasharray="1,5" d="M788,-187.1061C788,-187.1061 788,-205.991 788,-205.991"/>
<polygon fill="#000000" stroke="#000000" points="784.5001,-205.9909 788,-215.991 791.5001,-205.991 784.5001,-205.9909"/>
</g>
<!-- AppRoutingModule -->
<g id="node14" class="node">
<title>AppRoutingModule</title>
<polygon fill="#8dd3c7" stroke="#000000" points="152.2744,-122 149.2744,-126 128.2744,-126 125.2744,-122 23.7256,-122 23.7256,-86 152.2744,-86 152.2744,-122"/>
<text text-anchor="middle" x="88" y="-99.8" font-family="Times,serif" font-size="14.00" fill="#000000">AppRoutingModule</text>
</g>
<!-- AppRoutingModule&#45;&gt;AppModule -->
<g id="edge13" class="edge">
<title>AppRoutingModule&#45;&gt;AppModule</title>
<path fill="none" stroke="#000000" d="M88,-122.0908C88,-145.1328 88,-182 88,-182 88,-182 736.3081,-182 736.3081,-182"/>
<polygon fill="#000000" stroke="#000000" points="736.3082,-185.5001 746.3081,-182 736.3081,-178.5001 736.3082,-185.5001"/>
</g>
</g>
</svg>
