<?xml version="1.0" encoding="UTF-8" standalone="no"?>
<!DOCTYPE svg PUBLIC "-//W3C//DTD SVG 1.1//EN"
 "http://www.w3.org/Graphics/SVG/1.1/DTD/svg11.dtd">
<!-- Generated by graphviz version 2.40.1 (20161225.0304)
 -->
<!-- Title: dependencies Pages: 1 -->
<svg width="1466pt" height="284pt"
 viewBox="0.00 0.00 1466.00 284.00" xmlns="http://www.w3.org/2000/svg" xmlns:xlink="http://www.w3.org/1999/xlink">
<g id="graph0" class="graph" transform="scale(1 1) rotate(0) translate(4 280)">
<title>dependencies</title>
<polygon fill="#ffffff" stroke="transparent" points="-4,4 -4,-280 1462,-280 1462,4 -4,4"/>
<text text-anchor="start" x="708.0091" y="-42.4" font-family="sans-serif" font-weight="bold" font-size="14.00" fill="#000000">Legend</text>
<polygon fill="#ffffb3" stroke="transparent" points="495,-10 495,-30 515,-30 515,-10 495,-10"/>
<text text-anchor="start" x="518.629" y="-15.4" font-family="sans-serif" font-size="14.00" fill="#000000"> &#160;Declarations</text>
<polygon fill="#8dd3c7" stroke="transparent" points="608,-10 608,-30 628,-30 628,-10 608,-10"/>
<text text-anchor="start" x="631.7251" y="-15.4" font-family="sans-serif" font-size="14.00" fill="#000000"> &#160;Module</text>
<polygon fill="#80b1d3" stroke="transparent" points="694,-10 694,-30 714,-30 714,-10 694,-10"/>
<text text-anchor="start" x="717.7812" y="-15.4" font-family="sans-serif" font-size="14.00" fill="#000000"> &#160;Bootstrap</text>
<polygon fill="#fdb462" stroke="transparent" points="791,-10 791,-30 811,-30 811,-10 791,-10"/>
<text text-anchor="start" x="814.6732" y="-15.4" font-family="sans-serif" font-size="14.00" fill="#000000"> &#160;Providers</text>
<polygon fill="#fb8072" stroke="transparent" points="887,-10 887,-30 907,-30 907,-10 887,-10"/>
<text text-anchor="start" x="910.7258" y="-15.4" font-family="sans-serif" font-size="14.00" fill="#000000"> &#160;Exports</text>
<g id="clust1" class="cluster">
<title>cluster_AppModule</title>
<polygon fill="none" stroke="#000000" stroke-dasharray="1,5" points="8,-70 8,-268 1450,-268 1450,-70 8,-70"/>
</g>
<g id="clust2" class="cluster">
<title>cluster_AppModule_declarations</title>
<polygon fill="none" stroke="#000000" points="168,-78 168,-130 1442,-130 1442,-78 168,-78"/>
</g>
<g id="clust14" class="cluster">
<title>cluster_AppModule_imports</title>
<polygon fill="none" stroke="#000000" points="16,-78 16,-130 160,-130 160,-78 16,-78"/>
</g>
<g id="clust16" class="cluster">
<title>cluster_AppModule_bootstrap</title>
<polygon fill="none" stroke="#000000" points="667,-208 667,-260 791,-260 791,-208 667,-208"/>
</g>
<!-- AddMealPage -->
<g id="node1" class="node">
<title>AddMealPage</title>
<polygon fill="#ffffb3" stroke="#000000" points="1434.0828,-122 1337.9172,-122 1337.9172,-86 1434.0828,-86 1434.0828,-122"/>
<text text-anchor="middle" x="1386" y="-99.8" font-family="Times,serif" font-size="14.00" fill="#000000">AddMealPage</text>
</g>
<!-- AppModule -->
<g id="node12" class="node">
<title>AppModule</title>
<polygon fill="#8dd3c7" stroke="#000000" points="770.6571,-187 767.6571,-191 746.6571,-191 743.6571,-187 687.3429,-187 687.3429,-151 770.6571,-151 770.6571,-187"/>
<text text-anchor="middle" x="729" y="-164.8" font-family="Times,serif" font-size="14.00" fill="#000000">AppModule</text>
</g>
<!-- AddMealPage&#45;&gt;AppModule -->
<g id="edge1" class="edge">
<title>AddMealPage&#45;&gt;AppModule</title>
<path fill="none" stroke="#000000" d="M1386,-122.2479C1386,-145.0179 1386,-181 1386,-181 1386,-181 780.8469,-181 780.8469,-181"/>
<polygon fill="#000000" stroke="#000000" points="780.8469,-177.5001 770.8469,-181 780.8469,-184.5001 780.8469,-177.5001"/>
</g>
<!-- AllergiesPage -->
<g id="node2" class="node">
<title>AllergiesPage</title>
<polygon fill="#ffffb3" stroke="#000000" points="1320.0258,-122 1225.9742,-122 1225.9742,-86 1320.0258,-86 1320.0258,-122"/>
<text text-anchor="middle" x="1273" y="-99.8" font-family="Times,serif" font-size="14.00" fill="#000000">AllergiesPage</text>
</g>
<!-- AllergiesPage&#45;&gt;AppModule -->
<g id="edge2" class="edge">
<title>AllergiesPage&#45;&gt;AppModule</title>
<path fill="none" stroke="#000000" d="M1273,-122.2843C1273,-143.3211 1273,-175 1273,-175 1273,-175 780.7835,-175 780.7835,-175"/>
<polygon fill="#000000" stroke="#000000" points="780.7835,-171.5001 770.7835,-175 780.7834,-178.5001 780.7835,-171.5001"/>
</g>
<!-- AppComponent -->
<g id="node3" class="node">
<title>AppComponent</title>
<polygon fill="#ffffb3" stroke="#000000" points="1207.9399,-122 1102.0601,-122 1102.0601,-86 1207.9399,-86 1207.9399,-122"/>
<text text-anchor="middle" x="1155" y="-99.8" font-family="Times,serif" font-size="14.00" fill="#000000">AppComponent</text>
</g>
<!-- AppComponent&#45;&gt;AppModule -->
<g id="edge3" class="edge">
<title>AppComponent&#45;&gt;AppModule</title>
<path fill="none" stroke="#000000" d="M1155,-122.1061C1155,-141.3391 1155,-169 1155,-169 1155,-169 781.0124,-169 781.0124,-169"/>
<polygon fill="#000000" stroke="#000000" points="781.0124,-165.5001 771.0124,-169 781.0123,-172.5001 781.0124,-165.5001"/>
</g>
<!-- EditUserPage -->
<g id="node4" class="node">
<title>EditUserPage</title>
<polygon fill="#ffffb3" stroke="#000000" points="1084.472,-122 991.528,-122 991.528,-86 1084.472,-86 1084.472,-122"/>
<text text-anchor="middle" x="1038" y="-99.8" font-family="Times,serif" font-size="14.00" fill="#000000">EditUserPage</text>
</g>
<!-- EditUserPage&#45;&gt;AppModule -->
<g id="edge4" class="edge">
<title>EditUserPage&#45;&gt;AppModule</title>
<path fill="none" stroke="#000000" d="M1038,-122.0225C1038,-139.3734 1038,-163 1038,-163 1038,-163 780.6731,-163 780.6731,-163"/>
<polygon fill="#000000" stroke="#000000" points="780.6731,-159.5001 770.6731,-163 780.6731,-166.5001 780.6731,-159.5001"/>
</g>
<!-- ExperiencePage -->
<g id="node5" class="node">
<title>ExperiencePage</title>
<polygon fill="#ffffb3" stroke="#000000" points="973.1741,-122 866.8259,-122 866.8259,-86 973.1741,-86 973.1741,-122"/>
<text text-anchor="middle" x="920" y="-99.8" font-family="Times,serif" font-size="14.00" fill="#000000">ExperiencePage</text>
</g>
<!-- ExperiencePage&#45;&gt;AppModule -->
<g id="edge5" class="edge">
<title>ExperiencePage&#45;&gt;AppModule</title>
<path fill="none" stroke="#000000" d="M920,-122.2396C920,-137.5706 920,-157 920,-157 920,-157 780.9158,-157 780.9158,-157"/>
<polygon fill="#000000" stroke="#000000" points="780.9158,-153.5001 770.9158,-157 780.9157,-160.5001 780.9158,-153.5001"/>
</g>
<!-- FavoriteChefsPage -->
<g id="node6" class="node">
<title>FavoriteChefsPage</title>
<polygon fill="#ffffb3" stroke="#000000" points="849.0227,-122 726.9773,-122 726.9773,-86 849.0227,-86 849.0227,-122"/>
<text text-anchor="middle" x="788" y="-99.8" font-family="Times,serif" font-size="14.00" fill="#000000">FavoriteChefsPage</text>
</g>
<!-- FavoriteChefsPage&#45;&gt;AppModule -->
<g id="edge6" class="edge">
<title>FavoriteChefsPage&#45;&gt;AppModule</title>
<path fill="none" stroke="#000000" d="M748.7837,-122.1061C748.7837,-122.1061 748.7837,-140.991 748.7837,-140.991"/>
<polygon fill="#000000" stroke="#000000" points="745.2837,-140.9909 748.7837,-150.991 752.2837,-140.991 745.2837,-140.9909"/>
</g>
<!-- LogInPage -->
<g id="node7" class="node">
<title>LogInPage</title>
<polygon fill="#ffffb3" stroke="#000000" points="708.9262,-122 631.0738,-122 631.0738,-86 708.9262,-86 708.9262,-122"/>
<text text-anchor="middle" x="670" y="-99.8" font-family="Times,serif" font-size="14.00" fill="#000000">LogInPage</text>
</g>
<!-- LogInPage&#45;&gt;AppModule -->
<g id="edge7" class="edge">
<title>LogInPage&#45;&gt;AppModule</title>
<path fill="none" stroke="#000000" d="M697.9422,-122.1061C697.9422,-122.1061 697.9422,-140.991 697.9422,-140.991"/>
<polygon fill="#000000" stroke="#000000" points="694.4422,-140.9909 697.9422,-150.991 701.4422,-140.991 694.4422,-140.9909"/>
</g>
<!-- MealDetailPage -->
<g id="node8" class="node">
<title>MealDetailPage</title>
<polygon fill="#ffffb3" stroke="#000000" points="613.184,-122 506.816,-122 506.816,-86 613.184,-86 613.184,-122"/>
<text text-anchor="middle" x="560" y="-99.8" font-family="Times,serif" font-size="14.00" fill="#000000">MealDetailPage</text>
</g>
<!-- MealDetailPage&#45;&gt;AppModule -->
<g id="edge8" class="edge">
<title>MealDetailPage&#45;&gt;AppModule</title>
<path fill="none" stroke="#000000" d="M560,-122.2396C560,-137.5706 560,-157 560,-157 560,-157 677.2247,-157 677.2247,-157"/>
<polygon fill="#000000" stroke="#000000" points="677.2247,-160.5001 687.2247,-157 677.2247,-153.5001 677.2247,-160.5001"/>
</g>
<!-- MealHistoryPage -->
<g id="node9" class="node">
<title>MealHistoryPage</title>
<polygon fill="#ffffb3" stroke="#000000" points="488.9692,-122 375.0308,-122 375.0308,-86 488.9692,-86 488.9692,-122"/>
<text text-anchor="middle" x="432" y="-99.8" font-family="Times,serif" font-size="14.00" fill="#000000">MealHistoryPage</text>
</g>
<!-- MealHistoryPage&#45;&gt;AppModule -->
<g id="edge9" class="edge">
<title>MealHistoryPage&#45;&gt;AppModule</title>
<path fill="none" stroke="#000000" d="M432,-122.0225C432,-139.3734 432,-163 432,-163 432,-163 677.0771,-163 677.0771,-163"/>
<polygon fill="#000000" stroke="#000000" points="677.0771,-166.5001 687.0771,-163 677.077,-159.5001 677.0771,-166.5001"/>
</g>
<!-- OrdersPage -->
<g id="node10" class="node">
<title>OrdersPage</title>
<polygon fill="#ffffb3" stroke="#000000" points="356.7994,-122 275.2006,-122 275.2006,-86 356.7994,-86 356.7994,-122"/>
<text text-anchor="middle" x="316" y="-99.8" font-family="Times,serif" font-size="14.00" fill="#000000">OrdersPage</text>
</g>
<!-- OrdersPage&#45;&gt;AppModule -->
<g id="edge10" class="edge">
<title>OrdersPage&#45;&gt;AppModule</title>
<path fill="none" stroke="#000000" d="M316,-122.1061C316,-141.3391 316,-169 316,-169 316,-169 677.1265,-169 677.1265,-169"/>
<polygon fill="#000000" stroke="#000000" points="677.1266,-172.5001 687.1265,-169 677.1265,-165.5001 677.1266,-172.5001"/>
</g>
<!-- ProfilePage -->
<g id="node11" class="node">
<title>ProfilePage</title>
<polygon fill="#ffffb3" stroke="#000000" points="257.812,-122 176.188,-122 176.188,-86 257.812,-86 257.812,-122"/>
<text text-anchor="middle" x="217" y="-99.8" font-family="Times,serif" font-size="14.00" fill="#000000">ProfilePage</text>
</g>
<!-- ProfilePage&#45;&gt;AppModule -->
<g id="edge11" class="edge">
<title>ProfilePage&#45;&gt;AppModule</title>
<path fill="none" stroke="#000000" d="M217,-122.2843C217,-143.3211 217,-175 217,-175 217,-175 677.1009,-175 677.1009,-175"/>
<polygon fill="#000000" stroke="#000000" points="677.1009,-178.5001 687.1009,-175 677.1009,-171.5001 677.1009,-178.5001"/>
</g>
<!-- AppComponent  -->
<g id="node14" class="node">
<title>AppComponent </title>
<polygon fill="#80b1d3" stroke="#000000" points="783.439,-252 674.561,-252 674.561,-216 783.439,-216 783.439,-252"/>
<text text-anchor="middle" x="729" y="-229.8" font-family="Times,serif" font-size="14.00" fill="#000000">AppComponent </text>
</g>
<!-- AppModule&#45;&gt;AppComponent  -->
<g id="edge13" class="edge">
<title>AppModule&#45;&gt;AppComponent </title>
<path fill="none" stroke="#000000" stroke-dasharray="1,5" d="M729,-187.1061C729,-187.1061 729,-205.991 729,-205.991"/>
<polygon fill="#000000" stroke="#000000" points="725.5001,-205.9909 729,-215.991 732.5001,-205.991 725.5001,-205.9909"/>
</g>
<!-- AppRoutingModule -->
<g id="node13" class="node">
<title>AppRoutingModule</title>
<polygon fill="#8dd3c7" stroke="#000000" points="152.2744,-122 149.2744,-126 128.2744,-126 125.2744,-122 23.7256,-122 23.7256,-86 152.2744,-86 152.2744,-122"/>
<text text-anchor="middle" x="88" y="-99.8" font-family="Times,serif" font-size="14.00" fill="#000000">AppRoutingModule</text>
</g>
<!-- AppRoutingModule&#45;&gt;AppModule -->
<g id="edge12" class="edge">
<title>AppRoutingModule&#45;&gt;AppModule</title>
<path fill="none" stroke="#000000" d="M88,-122.2479C88,-145.0179 88,-181 88,-181 88,-181 676.9422,-181 676.9422,-181"/>
<polygon fill="#000000" stroke="#000000" points="676.9422,-184.5001 686.9422,-181 676.9422,-177.5001 676.9422,-184.5001"/>
</g>
</g>
</svg>
