<svg width="512" height="512" xmlns="http://www.w3.org/2000/svg">

 <g>
  <title>background</title>
  <rect fill="none" id="canvas_background" height="402" width="582" y="-1" x="-1"/>
 </g>
 <g>
  <title>Layer 1</title>
  <ellipse stroke="null" ry="204.499992" rx="204.499992" id="svg_11" cy="219.937508" cx="254.999992" stroke-opacity="null" stroke-width="2" fill="#fd665d"/>
  <path stroke="null" transform="rotate(-45 254.66749572753895,367.96533203125) " id="svg_12" d="m155.167483,467.465356l0,-199.000039l199.000024,199.000039l-199.000024,0z" stroke-opacity="null" stroke-width="2" fill="#fd665d"/>
  <g stroke="null" id="svg_16">
   <path stroke="null" stroke-width="71" fill="#fbf7f6" id="svg_1" d="m203.837768,242.489318l37.380133,-36.423172l-92.471608,-89.458661c-20.327722,19.806622 -20.327722,52.398321 0,72.204339l55.091475,53.677494z"/>
   <path stroke="null" stroke-width="71" fill="#fbf7f6" id="svg_2" d="m295.149821,219.481741c20.333767,8.948163 48.532995,2.558345 68.861321,-17.889677c24.919686,-24.280704 30.171185,-59.426516 10.496349,-77.959406c-19.021346,-19.169454 -55.090871,-14.052159 -80.011161,10.229149c-20.987862,20.448022 -27.545738,47.924239 -18.36181,67.093693c-28.859368,28.755994 -127.888247,125.241037 -127.888247,125.241037l18.363624,17.889677l90.503278,-88.179488l90.502069,88.179488l18.36181,-17.889677l-90.502674,-88.181302l19.67544,-18.533495z"/>
  </g>
 </g>
</svg>